# Blender 5.0.1
# www.blender.org
mtllib cutted_road.mtl
o rus_build_5et_06
v 28.000000 36.500000 -18.000002
v 69.000000 36.500000 -18.000002
v 87.000000 36.500000 -18.000002
v 28.000000 41.000000 -0.000003
v 69.000000 41.000000 -0.000003
v 28.000000 36.500000 17.999998
v 69.000000 36.500000 17.999998
v 87.000000 36.500000 17.999998
v 6.000000 36.500004 39.999996
v 6.000000 36.500008 81.000000
v 6.000000 36.500008 99.000000
v -12.000000 41.000004 39.999996
v -12.000000 41.000008 81.000000
v -30.000000 36.500004 39.999996
v -30.000000 36.500008 81.000000
v -30.000000 36.500008 99.000000
v -8.000000 40.000008 83.000000
v 0.000000 41.000008 83.000000
v 0.000000 37.000008 83.000000
v 0.000000 41.000008 79.000000
v 0.000000 37.000008 79.000000
v -8.000000 40.000008 79.000000
v -14.000000 40.000008 85.000000
v -14.000000 41.000008 93.000000
v -14.000000 37.000008 93.000000
v -10.000000 41.000008 93.000000
v -10.000000 37.000008 93.000000
v -10.000000 40.000008 85.000000
v -16.000000 40.000008 79.000000
v -24.000000 41.000008 79.000000
v -24.000000 37.000008 79.000000
v -24.000000 41.000008 83.000000
v -24.000000 37.000008 83.000000
v -16.000000 40.000008 83.000000
v 46.000000 40.000000 -4.000003
v 46.000000 41.000000 -12.000003
v 46.000000 37.000000 -12.000003
v 42.000000 41.000000 -12.000003
v 42.000000 37.000000 -12.000003
v 42.000000 40.000000 -4.000003
v 71.000000 40.000000 -4.000003
v 71.000000 41.000000 -12.000003
v 71.000000 37.000000 -12.000003
v 67.000000 41.000000 -12.000003
v 67.000000 37.000000 -12.000003
v 67.000000 40.000000 -4.000003
v 73.000000 40.000000 1.999997
v 81.000000 41.000000 1.999997
v 81.000000 37.000000 1.999997
v 81.000000 41.000000 -2.000003
v 81.000000 37.000000 -2.000003
v 73.000000 40.000000 -2.000003
v 67.000000 40.000000 3.999997
v 67.000000 41.000000 11.999997
v 67.000000 37.000000 11.999997
v 71.000000 41.000000 11.999997
v 71.000000 37.000000 11.999997
v 71.000000 40.000000 3.999997
v 42.000000 40.000000 3.999997
v 42.000000 41.000000 11.999997
v 42.000000 37.000000 11.999997
v 46.000000 41.000000 11.999997
v 46.000000 37.000000 11.999997
v 46.000000 40.000000 3.999997
v -16.000000 40.000004 53.999996
v -24.000000 41.000004 53.999996
v -24.000000 37.000004 53.999996
v -24.000000 41.000004 57.999996
v -24.000000 37.000004 57.999996
v -16.000000 40.000004 57.999996
v -8.000000 40.000004 57.999996
v 0.000000 41.000004 57.999996
v 0.000000 37.000004 57.999996
v 0.000000 41.000004 53.999996
v 0.000000 37.000004 53.999996
v -8.000000 40.000004 53.999996
v 5.805443 36.500008 96.533798
v 6.055443 36.250008 96.783798
v 4.555443 36.000008 96.533798
v 4.805443 35.750008 96.783798
v 4.055443 35.250008 96.533798
v 4.305443 35.000008 96.783798
v 4.055443 3.250007 96.533798
v 4.305443 3.500007 96.783798
v 4.305443 2.500007 96.533798
v 4.555443 2.750007 96.783798
v 4.805443 2.250007 96.533798
v 5.055443 2.500007 96.783798
v 6.055443 36.250008 96.283798
v 6.305443 36.000008 96.533798
v 5.055443 35.500008 96.533798
v 4.555443 35.000008 96.533798
v 4.555443 3.500007 96.533798
v 4.805443 3.000007 96.533798
v 5.305443 2.750007 96.533798
v 5.055443 2.500007 96.283798
v 4.805443 35.750008 96.283798
v 4.305443 35.000008 96.283798
v 4.305443 3.500007 96.283798
v 4.555443 2.750007 96.283798
v 84.480804 36.500000 17.826902
v 84.230804 36.250000 18.076902
v 84.480804 36.000000 16.576902
v 84.230804 35.750000 16.826902
v 84.480804 35.250000 16.076902
v 84.230804 35.000000 16.326902
v 84.480804 3.250001 16.076904
v 84.230804 3.500001 16.326904
v 84.480804 2.500001 16.326904
v 84.230804 2.750001 16.576904
v 84.480804 2.250001 16.826904
v 84.230804 2.500001 17.076904
v 84.730804 36.250000 18.076902
v 84.480804 36.000000 18.326902
v 84.480804 35.500000 17.076902
v 84.480804 35.000000 16.576902
v 84.480804 3.500001 16.576904
v 84.480804 3.000001 16.826904
v 84.480804 2.750001 17.326904
v 84.730804 2.500001 17.076904
v 84.730804 35.750000 16.826902
v 84.730804 35.000000 16.326902
v 84.730804 3.500001 16.326904
v 84.730804 2.750001 16.576904
v 84.499969 36.500000 -17.750002
v 84.749969 36.250000 -18.000002
v 84.499969 36.000000 -16.500002
v 84.749969 35.750000 -16.750002
v 84.499969 35.250000 -16.000002
v 84.749969 35.000000 -16.250002
v 84.499969 3.249999 -16.000000
v 84.749969 3.499999 -16.250000
v 84.499969 2.499999 -16.250000
v 84.749969 2.749999 -16.500000
v 84.499969 2.249999 -16.750000
v 84.749969 2.499999 -17.000000
v 84.249969 36.250000 -18.000002
v 84.499969 36.000000 -18.250002
v 84.499969 35.500000 -17.000002
v 84.499969 35.000000 -16.500002
v 84.499969 3.499999 -16.500000
v 84.499969 2.999999 -16.750000
v 84.499969 2.749999 -17.250000
v 84.249969 2.499999 -17.000000
v 84.249969 35.750000 -16.750002
v 84.249969 35.000000 -16.250002
v 84.249969 3.499999 -16.250000
v 84.249969 2.749999 -16.500000
v -29.771444 36.500008 96.514633
v -30.021439 36.250008 96.264633
v -28.521439 36.000008 96.514633
v -28.771439 35.750008 96.264633
v -28.021439 35.250008 96.514633
v -28.271439 35.000008 96.264633
v -28.021439 3.250007 96.514633
v -28.271439 3.500007 96.264633
v -28.271439 2.500007 96.514633
v -28.521439 2.750007 96.264633
v -28.771439 2.250007 96.514633
v -29.021439 2.500007 96.264633
v -30.021439 36.250008 96.764633
v -30.271439 36.000008 96.514633
v -29.021439 35.500008 96.514633
v -28.521439 35.000008 96.514633
v -28.521439 3.500007 96.514633
v -28.771439 3.000007 96.514633
v -29.271439 2.750007 96.514633
v -29.021439 2.500007 96.764633
v -28.771439 35.750008 96.764633
v -28.271439 35.000008 96.764633
v -28.271439 3.500007 96.764633
v -28.521439 2.750007 96.764633
v -28.000000 4.000007 97.000000
v 4.000000 4.000007 97.000000
v -28.000000 0.000007 97.000000
v 4.000000 0.000007 97.000000
v -28.000000 36.000008 97.000000
v -28.000000 37.000008 97.000000
v 4.000000 36.000008 97.000000
v 4.000000 37.000008 97.000000
v -20.000000 36.000008 97.000000
v -20.000000 4.000007 97.000000
v -4.000000 36.000008 97.000000
v -4.000000 4.000007 97.000000
v 84.000000 4.000001 16.000000
v 85.000000 4.000001 16.000000
v 84.000000 0.000001 16.000000
v 85.000000 0.000001 16.000000
v 84.000000 36.000000 15.999997
v 85.000000 36.000000 15.999997
v 4.000000 36.000008 96.000000
v 4.000000 4.000007 96.000000
v 4.000000 0.000007 96.000000
v -28.000000 4.000007 96.000000
v -28.000000 0.000007 96.000000
v -28.000000 36.000008 96.000000
v 85.000000 36.000000 -16.000002
v 84.000000 36.000000 -16.000002
v 85.000000 3.999999 -16.000000
v 84.000000 3.999999 -16.000000
v 85.000000 -0.000001 -16.000000
v 84.000000 -0.000001 -16.000000
v 85.000000 37.000000 15.999997
v 85.000000 37.000000 -16.000002
v 85.000000 36.000000 7.999997
v 85.000000 4.000000 8.000000
v 85.000000 36.000000 -8.000003
v 85.000000 3.999999 -8.000000
v 7.000000 7.000005 65.000000
v 7.000000 7.000005 71.000000
v 4.000000 8.000005 65.000000
v 4.000000 8.000006 71.000000
v 4.000000 36.000004 63.999996
v 4.000000 36.000004 47.999996
v 4.000000 4.000005 64.000000
v 4.000000 4.000004 48.000000
v 4.000000 8.000006 72.000000
v 4.000000 8.000005 64.000000
v 4.000000 0.000005 72.000000
v 4.000000 0.000005 64.000000
v 4.000000 12.000006 72.000000
v 4.000000 12.000005 64.000000
v 4.000000 36.000004 72.000000
v 4.000000 36.000008 80.000000
v 4.000000 4.000005 72.000000
v -28.000000 36.000004 39.999996
v -28.000000 37.000004 39.999996
v -28.000000 36.000004 63.999996
v -28.000000 37.000004 63.999996
v -28.000000 36.000008 80.000000
v -28.000000 4.000005 64.000000
v 4.000000 36.000004 73.000000
v 4.000000 37.000004 73.000000
v 4.000000 36.000004 39.999996
v 4.000000 37.000004 39.999996
v -28.000002 36.000004 48.000000
v -28.000000 4.000004 48.000000
v -28.000000 4.000003 40.000000
v 4.000000 4.000003 40.000000
v 59.000000 7.000001 19.000000
v 53.000000 7.000001 19.000000
v 59.000000 8.000001 15.999999
v 53.000000 8.000001 15.999999
v 60.000000 36.000000 15.999997
v 76.000000 36.000000 15.999997
v 60.000000 4.000001 16.000000
v 76.000000 4.000001 16.000000
v 52.000000 8.000001 15.999999
v 60.000000 8.000001 15.999999
v 52.000000 0.000001 16.000000
v 60.000000 0.000001 16.000000
v 52.000000 12.000001 15.999999
v 60.000000 12.000001 15.999999
v 52.000000 36.000000 15.999997
v 28.000000 36.000000 15.999997
v 44.000000 36.000000 15.999997
v 28.000000 4.000001 16.000000
v 44.000000 4.000001 16.000000
v 52.000000 4.000001 16.000000
v 61.000000 36.000000 -16.000002
v 61.000000 37.000000 -16.000002
v 28.000000 36.000000 -16.000002
v 28.000000 37.000000 -16.000002
v 60.000000 36.000000 -16.000002
v 44.000000 36.000000 -16.000002
v 60.000000 3.999999 -16.000000
v 44.000000 3.999999 -16.000000
v 28.000000 3.999999 -16.000000
v 28.000000 37.000000 15.999997
v 52.000000 37.000000 15.999997
v 76.000000 36.000000 -16.000002
v 76.000000 3.999999 -16.000000
v 11.000000 7.000001 19.000000
v 5.000000 7.000001 19.000000
v 11.000000 8.000001 15.999999
v 5.000000 8.000001 15.999999
v 12.000000 20.000002 15.999998
v 28.000000 20.000002 15.999998
v 12.000000 4.000001 16.000000
v 4.000000 8.000001 15.999999
v 12.000000 8.000001 15.999999
v 4.000000 0.000001 16.000000
v 12.000000 0.000001 16.000000
v 4.000000 12.000001 15.999999
v 12.000000 12.000001 15.999999
v 4.000000 44.000000 15.999997
v 12.000000 44.000000 15.999997
v 28.000000 44.000000 -16.000004
v 28.000000 45.000000 -16.000004
v 4.000000 44.000000 -16.000004
v 4.000000 45.000000 -16.000004
v -28.000002 44.000004 -16.000004
v -28.000000 45.000000 -16.000004
v 4.000000 19.999998 -16.000002
v -12.000000 19.999998 -16.000002
v 4.000000 3.999999 -16.000000
v -12.000000 3.999999 -16.000000
v -28.000000 19.999998 -16.000002
v -28.000000 3.999999 -16.000000
v 4.000000 45.000000 15.999996
v 28.000000 44.000000 15.999997
v 28.000000 45.000000 15.999996
v 20.000000 19.999998 -16.000002
v 20.000000 3.999999 -16.000000
v 28.000000 19.999998 -16.000002
v -12.000000 44.000000 -16.000004
v 20.000000 44.000004 -16.000004
v 28.000000 44.000000 -0.000003
v 28.000000 36.000000 -0.000003
v -12.000000 44.500000 -18.000004
v 12.000000 44.500000 -18.000004
v 30.000000 44.500000 -18.000004
v -12.000000 49.000000 -0.000004
v 12.000000 49.000000 -0.000004
v 6.000000 44.500000 17.999996
v 12.000000 44.500000 17.999996
v 30.000000 44.500000 17.999996
v -10.000000 48.000000 -4.000004
v -10.000000 49.000000 -12.000004
v -10.000000 45.000000 -12.000004
v -14.000000 49.000000 -12.000004
v -14.000000 45.000000 -12.000004
v -14.000000 48.000000 -4.000004
v 14.000000 48.000000 -4.000004
v 14.000000 49.000000 -12.000004
v 14.000000 45.000000 -12.000004
v 10.000000 49.000000 -12.000004
v 10.000000 45.000000 -12.000004
v 10.000000 48.000000 -4.000004
v 16.000000 48.000000 1.999996
v 24.000000 49.000000 1.999996
v 24.000000 45.000000 1.999997
v 24.000000 49.000000 -2.000004
v 24.000000 45.000000 -2.000003
v 16.000000 48.000000 -2.000004
v 10.000000 48.000000 3.999996
v 10.000000 49.000000 11.999996
v 10.000000 45.000000 11.999996
v 14.000000 49.000000 11.999996
v 14.000000 45.000000 11.999996
v 14.000000 48.000000 3.999996
v -30.000000 44.500000 -18.000004
v -28.000000 0.000005 64.000000
v -28.000000 4.000002 32.000000
v -28.000000 0.000002 32.000000
v -4.000000 3.999999 -16.000000
v 28.000000 -0.000001 -16.000000
v -4.000000 -0.000001 -16.000000
v 60.000000 -0.000001 -16.000000
v 28.000000 0.000001 16.000000
v 4.000000 0.000003 40.000000
v -28.000000 44.000000 7.999997
v -28.000000 45.000000 7.999997
v -28.000000 44.000004 39.999996
v -28.000000 45.000004 39.999996
v -28.000000 20.000000 7.999999
v -28.000000 20.000002 23.999998
v -28.000000 4.000000 8.000000
v -28.000000 4.000002 24.000000
v -28.000000 20.000004 40.000000
v -28.000000 20.000000 -8.000002
v -28.000000 3.999999 -8.000000
v -28.000000 44.000000 23.999996
v -28.000002 44.000004 -8.000003
v -28.000000 4.000001 16.000000
v -28.000000 -0.000001 -16.000000
v -28.000000 0.000001 16.000000
v 4.000000 20.000004 40.000000
v 4.000000 20.000002 31.999998
v 4.000000 4.000002 32.000000
v 4.000000 20.000002 15.999998
v 4.000000 4.000001 16.000000
v 4.000000 44.000004 39.999996
v 4.000000 44.000004 31.999996
v 4.000000 45.000004 39.999996
v -12.000000 44.000004 39.999996
v -12.000000 36.000004 39.999996
v -30.000000 44.500000 23.999996
v -30.000000 44.500000 -0.000003
v -12.000000 49.000000 23.999996
v 6.000000 44.500000 23.999996
v -16.000000 48.000000 21.999996
v -24.000000 49.000000 21.999996
v -24.000000 45.000000 21.999996
v -24.000000 49.000004 25.999996
v -24.000000 45.000004 25.999996
v -16.000000 48.000004 25.999996
v -16.000000 48.000000 -2.000004
v -24.000000 49.000000 -2.000004
v -24.000000 45.000000 -2.000003
v -24.000000 49.000000 1.999996
v -24.000000 45.000000 1.999997
v -16.000000 48.000000 1.999996
v -8.000000 48.000004 25.999996
v 0.000000 49.000004 25.999996
v 0.000000 45.000004 25.999996
v 0.000000 49.000000 21.999996
v 0.000000 45.000000 21.999996
v -8.000000 48.000000 21.999996
v 6.000000 44.500004 41.999996
v -30.000000 44.500004 41.999996
v -14.000000 48.000004 27.999996
v -14.000000 49.000004 35.999996
v -14.000000 45.000004 35.999996
v -10.000000 49.000004 35.999996
v -10.000000 45.000004 35.999996
v -10.000000 48.000004 27.999996
v -31.000000 36.000004 47.999996
v -31.000000 36.000004 55.999996
v -31.000000 20.000004 48.000000
v -31.000000 20.000004 56.000000
v -28.000000 36.000008 88.000000
v -31.000000 36.000008 88.000000
v -31.000000 36.000008 80.000000
v -28.000000 20.000006 80.000000
v -31.000000 20.000006 80.000000
v -28.000000 20.000006 88.000000
v -31.000000 20.000006 88.000000
v -28.000000 36.000004 55.999996
v -28.000000 20.000004 48.000000
v -28.000000 20.000004 56.000000
v 76.000000 36.000000 -19.000002
v 68.000000 36.000000 -19.000002
v 76.000000 19.999998 -19.000002
v 68.000000 19.999998 -19.000002
v 36.000000 36.000000 -16.000002
v 36.000000 36.000000 -19.000002
v 44.000000 36.000000 -19.000002
v 44.000000 19.999998 -16.000002
v 44.000000 19.999998 -19.000002
v 36.000000 19.999998 -16.000002
v 36.000000 19.999998 -19.000002
v 68.000000 36.000000 -16.000002
v 76.000000 19.999998 -16.000002
v 68.000000 19.999998 -16.000002
v 20.000000 44.000000 -19.000004
v 12.000000 44.000000 -19.000004
v 20.000000 19.999998 -19.000002
v 12.000000 19.999998 -19.000002
v -20.000000 44.000000 -16.000004
v -20.000000 44.000000 -19.000004
v -12.000000 44.000000 -19.000004
v -12.000000 19.999998 -19.000002
v -20.000000 19.999998 -16.000002
v -20.000000 19.999998 -19.000002
v 12.000000 44.000000 -16.000004
v 12.000000 19.999998 -16.000002
v 36.000000 36.000000 18.999998
v 44.000000 36.000000 18.999998
v 36.000000 20.000002 18.999998
v 44.000000 20.000002 18.999998
v 76.000000 36.000000 18.999998
v 68.000000 36.000000 15.999997
v 68.000000 36.000000 18.999998
v 68.000000 20.000002 15.999998
v 68.000000 20.000002 18.999998
v 76.000000 20.000002 15.999998
v 76.000000 20.000002 18.999998
v 36.000000 36.000000 15.999997
v 36.000000 20.000002 15.999998
v 44.000000 20.000002 15.999998
v 7.000000 36.000008 88.000000
v 7.000000 36.000008 80.000000
v 7.000000 20.000006 88.000000
v 7.000000 20.000006 80.000000
v 7.000000 36.000004 47.999996
v 4.000000 36.000004 55.999996
v 7.000000 36.000004 55.999996
v 4.000000 20.000004 56.000000
v 7.000000 20.000004 56.000000
v 4.000000 20.000004 48.000000
v 7.000000 20.000004 48.000000
v 4.000000 36.000008 88.000000
v 4.000000 20.000006 88.000000
v 4.000000 20.000006 80.000000
v 7.000000 44.000004 31.999996
v 7.000000 44.000000 23.999996
v 7.000000 20.000002 31.999998
v 7.000000 20.000002 23.999998
v 20.000000 44.000000 15.999997
v 20.000000 44.000000 18.999996
v 12.000000 44.000000 18.999996
v 12.000000 20.000002 18.999998
v 20.000000 20.000002 15.999998
v 20.000000 20.000002 18.999998
v 4.000000 44.000000 23.999996
v 4.000000 20.000002 23.999998
v -31.000000 44.000000 -8.000003
v -31.000000 44.000000 -0.000003
v -31.000000 20.000000 -8.000002
v -31.000000 20.000000 -0.000002
v -28.000000 44.000004 31.999996
v -31.000000 44.000004 31.999996
v -31.000000 44.000000 23.999996
v -31.000000 20.000002 23.999998
v -28.000000 20.000002 31.999998
v -31.000000 20.000002 31.999998
v -28.000000 44.000000 -0.000003
v -28.000000 20.000000 -0.000002
v 5.805443 44.500004 39.533794
v 6.055443 44.250004 39.783794
v 4.555443 44.000004 39.533794
v 4.805443 43.750004 39.783794
v 4.055443 43.250004 39.533794
v 4.305443 43.000004 39.783794
v 4.055443 3.250003 39.533798
v 4.305443 3.500003 39.783798
v 4.305443 2.500003 39.533798
v 4.555443 2.750003 39.783798
v 4.805443 2.250003 39.533798
v 5.055443 2.500003 39.783798
v 6.055443 44.250004 39.283794
v 6.305443 44.000004 39.533794
v 5.055443 43.500004 39.533794
v 4.555443 43.000004 39.533794
v 4.555443 3.500003 39.533798
v 4.805443 3.000003 39.533798
v 5.305443 2.750003 39.533798
v 5.055443 2.500003 39.283798
v 4.805443 43.750004 39.283794
v 4.305443 43.000004 39.283794
v 4.305443 3.500003 39.283798
v 4.555443 2.750003 39.283798
v -29.771444 44.500004 39.514629
v -30.021439 44.250004 39.264629
v -28.521439 44.000004 39.514629
v -28.771439 43.750004 39.264629
v -28.021439 43.250004 39.514629
v -28.271439 43.000004 39.264629
v -28.021439 3.250003 39.514633
v -28.271439 3.500003 39.264633
v -28.271439 2.500003 39.514633
v -28.521439 2.750003 39.264633
v -28.771439 2.250003 39.514633
v -29.021439 2.500003 39.264633
v -30.021439 44.250004 39.764629
v -30.271439 44.000004 39.514629
v -29.021439 43.500004 39.514629
v -28.521439 43.000004 39.514629
v -28.521439 3.500003 39.514633
v -28.771439 3.000003 39.514633
v -29.271439 2.750003 39.514633
v -29.021439 2.500003 39.764633
v -28.771439 43.750004 39.764629
v -28.271439 43.000004 39.764629
v -28.271439 3.500003 39.764633
v -28.521439 2.750003 39.764633
v 27.480804 44.500000 17.826900
v 27.230804 44.250000 18.076900
v 27.480804 44.000000 16.576900
v 27.230804 43.750000 16.826900
v 27.480804 43.250000 16.076900
v 27.230804 43.000000 16.326900
v 27.480804 3.250001 16.076904
v 27.230804 3.500001 16.326904
v 27.480804 2.500001 16.326904
v 27.230804 2.750001 16.576904
v 27.480804 2.250001 16.826904
v 27.230804 2.500001 17.076904
v 27.730804 44.250000 18.076900
v 27.480804 44.000000 18.326900
v 27.480804 43.500000 17.076900
v 27.480804 43.000000 16.576900
v 27.480804 3.500001 16.576904
v 27.480804 3.000001 16.826904
v 27.480804 2.750001 17.326904
v 27.730804 2.500001 17.076904
v 27.730804 43.750000 16.826900
v 27.730804 43.000000 16.326900
v 27.730804 3.500001 16.326904
v 27.730804 2.750001 16.576904
v 27.499969 44.500000 -17.750004
v 27.749969 44.250000 -18.000004
v 27.499969 44.000000 -16.500004
v 27.749969 43.750000 -16.750004
v 27.499969 43.250000 -16.000004
v 27.749969 43.000000 -16.250004
v 27.499969 3.249999 -16.000000
v 27.749969 3.499999 -16.250000
v 27.499969 2.499999 -16.250000
v 27.749969 2.749999 -16.500000
v 27.499969 2.249999 -16.750000
v 27.749969 2.499999 -17.000000
v 27.249969 44.250000 -18.000004
v 27.499969 44.000000 -18.250004
v 27.499969 43.500000 -17.000004
v 27.499969 43.000000 -16.500004
v 27.499969 3.499999 -16.500000
v 27.499969 2.999999 -16.750000
v 27.499969 2.749999 -17.250000
v 27.249969 2.499999 -17.000000
v 27.249969 43.750000 -16.750004
v 27.249969 43.000000 -16.250004
v 27.249969 3.499999 -16.250000
v 27.249969 2.749999 -16.500000
v -27.500031 44.500000 -17.750004
v -27.250031 44.250000 -18.000004
v -27.500031 44.000000 -16.500004
v -27.250031 43.750000 -16.750004
v -27.500031 43.250000 -16.000004
v -27.250031 43.000000 -16.250004
v -27.500031 3.249999 -16.000000
v -27.250031 3.499999 -16.250000
v -27.500031 2.499999 -16.250000
v -27.250031 2.749999 -16.500000
v -27.500031 2.249999 -16.750000
v -27.250031 2.499999 -17.000000
v -27.750031 44.250000 -18.000004
v -27.500031 44.000000 -18.250004
v -27.500031 43.500000 -17.000004
v -27.500031 43.000000 -16.500004
v -27.500031 3.499999 -16.500000
v -27.500031 2.999999 -16.750000
v -27.500031 2.749999 -17.250000
v -27.750031 2.499999 -17.000000
v -27.750031 43.750000 -16.750004
v -27.750031 43.000000 -16.250004
v -27.750031 3.499999 -16.250000
v -27.750031 2.749999 -16.500000
v 4.000000 20.000006 76.000000
v 4.000000 4.000007 95.336510
v -28.000000 1.167563 95.336510
v -27.999998 0.082943 95.336510
v 4.000000 0.000007 95.336510
v 4.000000 3.889426 95.336510
v 4.000000 4.000007 95.336510
v -27.999998 0.000007 95.336510
v 4.000002 14.112146 95.336517
v -28.000000 14.112146 80.000000
v -28.000000 14.112145 90.943924
v -28.000000 14.112146 95.336517
v 3.999997 1.130822 72.987175
v 4.000000 4.000006 72.987167
v 4.000002 14.112146 72.987183
v 4.000000 7.948692 72.987175
v 4.000000 4.000006 72.987167
v 4.000000 7.948693 72.987175
v -28.000000 14.112147 72.987175
v 4.000002 14.112146 72.987183
v 4.000000 14.112145 85.056068
v 4.000000 14.112145 80.000000
v 4.000000 14.112146 74.528038
v 4.000000 14.112146 74.528038
v 4.000000 14.112146 80.000000
v -28.000000 14.112146 74.943932
v -28.000000 2.876609 72.987167
v -28.000000 4.000006 72.987167
v 4.000000 0.000006 72.987167
v 4.000000 0.164533 72.987167
v -28.000000 0.000006 72.987167
v -28.000000 4.000006 72.987167
v -28.000000 4.000007 95.336510
v -28.000000 5.326982 95.336510
v -27.999998 4.000007 95.336510
vn -0.0000 0.9701 -0.2425
vn 0.2425 0.9702 -0.0000
vn -0.1809 0.9835 -0.0000
vn 0.1213 0.9914 0.0489
vn -0.0000 0.9701 0.2425
vn -0.0489 0.9914 0.1213
vn 0.2425 0.9701 -0.0000
vn -0.0000 0.9702 0.2425
vn -0.0000 0.9835 -0.1809
vn -0.2425 0.9701 -0.0000
vn -0.1213 0.9914 -0.0489
vn -0.0624 0.4995 0.8640
vn 0.1197 -0.0000 0.9928
vn 0.9982 -0.0336 0.0501
vn 0.9957 -0.0000 0.0931
vn -0.1571 0.9863 -0.0501
vn -0.0456 0.3649 -0.9299
vn -0.8640 0.4995 -0.0624
vn -0.9928 -0.0000 0.1197
vn -0.0501 -0.0336 0.9982
vn -0.0931 -0.0000 0.9957
vn 0.0501 0.9863 -0.1571
vn 0.9299 0.3649 -0.0456
vn 0.0624 0.4995 -0.8640
vn -0.1197 -0.0000 -0.9928
vn -0.9982 -0.0336 -0.0501
vn -0.9957 -0.0000 -0.0931
vn 0.1571 0.9863 0.0501
vn 0.0456 0.3649 0.9299
vn 0.8640 0.4995 0.0624
vn 0.9928 -0.0000 -0.1197
vn 0.0501 -0.0336 -0.9982
vn 0.0931 -0.0000 -0.9957
vn -0.0501 0.9863 0.1571
vn -0.9299 0.3649 0.0456
vn -0.3449 0.4670 0.8142
vn 0.3448 -0.4554 0.8208
vn -0.0694 0.5320 0.8439
vn 0.5297 0.6211 -0.5776
vn -0.6473 0.0634 -0.7595
vn -0.6682 0.2286 0.7080
vn -0.6675 -0.0271 0.7441
vn 0.6437 0.1078 0.7576
vn -0.4542 -0.3596 -0.8151
vn -0.4665 -0.4706 0.7489
vn -0.0281 -0.5775 0.8159
vn 0.8116 -0.0576 0.5814
vn 0.7175 0.1553 0.6790
vn 0.0425 -0.4406 -0.8967
vn 0.3972 -0.4998 -0.7697
vn 0.6636 -0.1574 0.7313
vn 0.6733 0.1070 -0.7316
vn 0.4539 0.4138 0.7891
vn 0.4521 0.3894 -0.8025
vn 0.0038 -0.9215 -0.3883
vn -0.4349 0.4745 -0.7653
vn 0.5923 -0.2036 -0.7796
vn -0.6855 -0.1428 -0.7140
vn 0.4047 0.3474 -0.8459
vn -0.8142 0.4670 -0.3449
vn -0.8208 -0.4554 0.3448
vn -0.8439 0.5320 -0.0694
vn 0.5776 0.6211 0.5297
vn 0.7595 0.0634 -0.6474
vn -0.7080 0.2286 -0.6682
vn -0.7441 -0.0272 -0.6675
vn -0.7576 0.1078 0.6437
vn 0.8151 -0.3596 -0.4542
vn -0.7489 -0.4706 -0.4666
vn -0.8159 -0.5775 -0.0281
vn -0.5814 -0.0576 0.8116
vn -0.6790 0.1553 0.7175
vn 0.8967 -0.4406 0.0425
vn 0.7697 -0.4999 0.3971
vn -0.7313 -0.1574 0.6636
vn 0.7316 0.1070 0.6733
vn -0.7891 0.4138 0.4539
vn 0.8025 0.3894 0.4521
vn 0.3883 -0.9215 0.0038
vn 0.7653 0.4745 -0.4349
vn 0.7796 -0.2036 0.5923
vn 0.7140 -0.1428 -0.6855
vn 0.8459 0.3474 0.4047
vn 0.8142 0.4670 0.3449
vn 0.8208 -0.4554 -0.3448
vn 0.8439 0.5320 0.0694
vn -0.5776 0.6211 -0.5297
vn -0.7595 0.0634 0.6474
vn 0.7080 0.2286 0.6682
vn 0.7441 -0.0272 0.6675
vn 0.7576 0.1078 -0.6437
vn -0.8151 -0.3596 0.4542
vn 0.7489 -0.4706 0.4666
vn 0.8159 -0.5775 0.0281
vn 0.5814 -0.0576 -0.8116
vn 0.6790 0.1553 -0.7175
vn -0.8967 -0.4406 -0.0425
vn -0.7697 -0.4999 -0.3971
vn 0.7313 -0.1574 -0.6636
vn -0.7316 0.1070 -0.6733
vn 0.7891 0.4138 -0.4539
vn -0.8025 0.3894 -0.4521
vn -0.3883 -0.9215 -0.0038
vn -0.7653 0.4745 0.4349
vn -0.7796 -0.2036 -0.5923
vn -0.7140 -0.1428 0.6855
vn -0.8459 0.3474 -0.4047
vn 0.3449 0.4670 -0.8142
vn -0.3448 -0.4554 -0.8208
vn 0.0694 0.5320 -0.8439
vn -0.5297 0.6211 0.5776
vn 0.6474 0.0634 0.7595
vn 0.6682 0.2286 -0.7080
vn 0.6675 -0.0272 -0.7441
vn -0.6437 0.1078 -0.7576
vn 0.4542 -0.3596 0.8151
vn 0.4665 -0.4706 -0.7489
vn 0.0281 -0.5775 -0.8159
vn -0.8116 -0.0576 -0.5814
vn -0.7175 0.1553 -0.6790
vn -0.0427 -0.4407 0.8967
vn -0.3971 -0.4999 0.7697
vn -0.6636 -0.1574 -0.7313
vn -0.6733 0.1070 0.7316
vn -0.4539 0.4138 -0.7891
vn -0.4521 0.3894 0.8025
vn -0.0038 -0.9215 0.3883
vn 0.4350 0.4745 0.7653
vn -0.5923 -0.2036 0.7796
vn 0.6855 -0.1428 0.7140
vn -0.4047 0.3474 0.8459
vn 0.0001 -0.0000 1.0000
vn -1.0000 0.0003 -0.0000
vn -0.0001 -0.0000 1.0000
vn 1.0000 0.0001 -0.0001
vn 1.0000 -0.0000 -0.0000
vn -1.0000 -0.0000 -0.0001
vn -0.0000 -0.0000 1.0000
vn -0.5000 -0.7071 0.5000
vn -0.0000 0.0003 1.0000
vn 1.0000 -0.0000 -0.0001
vn 0.5000 -0.7071 0.5000
vn -1.0000 -0.0000 -0.0000
vn -0.0001 0.0001 -1.0000
vn -0.0000 -0.0000 -1.0000
vn 1.0000 -0.0000 0.0001
vn 0.3162 0.9487 -0.0000
vn -0.0000 0.9487 0.3162
vn 0.0001 -0.0000 -1.0000
vn -1.0000 0.0096 -0.0000
vn 0.1113 0.9875 0.1114
vn -0.1810 0.9835 -0.0000
vn 0.0489 0.9914 -0.1213
vn -1.0000 -0.0000 0.0001
vn 0.0001 0.0002 -1.0000
vn -0.0000 0.9841 -0.1774
vn -0.6667 -0.6667 0.3333
vn -0.6667 0.6667 -0.3333
vn -0.0000 1.0000 -0.0000
vn -0.0001 -0.0001 -1.0000
vn -0.0000 -0.0001 1.0000
vn -0.0000 -1.0000 -0.0000
vn -0.0001 0.0001 1.0000
vn -0.0000 0.0001 -1.0000
vn -0.3333 -0.6667 -0.6667
vn 0.3333 0.6667 -0.6667
vn 1.0000 0.0003 0.0003
vn -1.0000 -0.0001 -0.0000
vn -1.0000 -0.0003 0.0003
vn 1.0000 0.0001 -0.0000
vn -1.0000 0.0001 -0.0000
vn 0.3333 0.6666 -0.6667
vn 1.0000 -0.0001 -0.0000
vn 1.0000 0.0001 0.0002
vn -1.0000 -0.0001 0.0002
vn 0.3333 -0.6667 0.6667
vn -0.3333 0.6667 0.6667
vn -1.0000 0.0003 -0.0003
vn 1.0000 -0.0003 -0.0003
vn 0.6667 -0.6667 -0.3333
vn 0.6667 0.6667 0.3333
vn 0.0001 -0.0001 1.0000
vn -0.0000 -0.0001 -1.0000
vn 0.0001 0.0001 -1.0000
vn -0.0000 0.0001 1.0000
vn 0.6667 0.6666 0.3333
vn -1.0000 0.0001 -0.0002
vn 1.0000 -0.0001 -0.0002
vn -0.6667 0.6666 -0.3333
vn -0.0003 -0.0001 1.0000
vn -0.6474 0.0635 -0.7595
vn 0.3971 -0.4999 -0.7697
vn 0.6474 0.0635 0.7595
vn 0.6675 -0.0271 -0.7441
vn 0.4349 0.4745 0.7653
vn 0.7595 0.0635 -0.6474
vn -0.7441 -0.0271 -0.6675
vn -0.8111 0.3245 0.4866
vn 0.9202 0.2142 0.3275
vn 0.7845 -0.1961 0.5883
vn -0.7587 -0.4883 0.4312
vn 0.5754 0.1923 -0.7950
vn -0.6385 -0.3152 -0.7021
vn -0.9952 -0.0747 0.0637
vn -0.0000 -0.0000 -0.0000
vt 1.000000 0.000000
vt 1.000000 0.250000
vt 0.375000 0.250000
vt 0.375000 0.000000
vt 0.125000 0.000000
vt 0.625000 0.000000
vt 0.003350 0.062500
vt 0.128350 0.000000
vt 0.128350 0.062500
vt 0.000000 0.125000
vt 0.000000 0.062500
vt 0.062500 0.062500
vt 0.062500 0.125000
vt 0.812500 0.187500
vt 0.812500 0.062500
vt 0.875000 0.062500
vt 0.875000 0.187500
vt 0.671875 0.962054
vt 0.687500 0.962054
vt 0.687500 0.988840
vt 0.671875 0.988840
vt 0.671875 0.935266
vt 0.687500 0.935266
vt 0.671875 0.439734
vt 0.687500 0.439734
vt 0.671875 0.412946
vt 0.687500 0.412946
vt 0.671875 0.386160
vt 0.687500 0.386160
vt 0.671875 1.000000
vt 0.687500 1.000000
vt 0.671875 0.375000
vt 0.687500 0.375000
vt 0.500000 0.312500
vt 0.500000 0.250000
vt 1.000000 0.312500
vt 0.656250 0.875000
vt 0.656250 0.375000
vt 0.671875 0.875000
vt 0.375000 0.500000
vt 0.500000 0.500000
vt 0.500000 1.000000
vt 0.375000 1.000000
vt 0.250000 0.500000
vt 0.250000 1.000000
vt 0.000000 1.000000
vt 0.000000 0.500000
vt 0.609375 0.312500
vt 0.609375 0.250006
vt 0.625000 0.250006
vt 0.625000 0.312500
vt 0.625000 1.000000
vt 0.625000 0.375000
vt 0.640625 0.375000
vt 0.640625 1.000000
vt 0.515625 0.250006
vt 0.515625 0.312500
vt 0.000000 0.187500
vt 0.125000 0.125000
vt 0.125000 0.187500
vt 0.125000 0.375000
vt 0.125000 0.250000
vt 0.250000 0.250000
vt 0.250000 0.375000
vt 0.000000 0.312500
vt 0.000000 0.250000
vt 0.125000 0.312500
vt 0.500000 0.625000
vt 0.625000 0.625000
vt 0.010367 0.500000
vt 0.010367 0.658002
vt 0.170999 0.658002
vt 0.250000 0.658002
vt 0.250000 0.750000
vt 0.000000 0.658002
vt 0.085499 0.658002
vt 0.062500 0.750000
vt 0.109575 0.658002
vt 0.109575 0.561698
vt 0.125000 0.500000
vt 0.125000 1.000000
vt 0.656250 1.000000
vt 0.656250 0.625000
vt 0.671875 0.625000
vt 0.656250 0.500000
vt 0.671875 0.500000
vt 0.140424 0.500000
vt 0.140425 0.658002
vt 0.170999 0.658002
vt 0.250000 0.658002
vt 0.239633 0.658002
vt 0.239633 0.520734
vt 0.109575 0.658002
vt 0.109575 0.561698
vt 0.125000 0.750000
vt 0.000000 0.750000
vt 0.375000 0.375000
vt 0.625000 0.500000
vt 0.000000 0.625000
vt 0.250000 0.625000
vt 0.125000 0.625000
vt 0.250000 0.875000
vt 0.500000 0.875000
vt 0.750000 0.000000
vt 0.750000 0.250000
vt 0.500000 0.000000
vt 0.640424 0.250000
vt 0.640424 0.294947
vt 0.640424 0.312500
vt 0.750000 0.312500
vt 0.635367 0.250006
vt 0.635367 0.310772
vt 0.635367 0.312500
vt 0.657552 0.000000
vt 0.812500 0.750000
vt 0.937500 0.750000
vt 0.937500 1.000000
vt 0.812500 1.000000
vt 0.937500 0.875000
vt 0.984375 0.875000
vt 0.984375 1.000000
vt 0.687500 0.750000
vt 0.812500 0.375000
vt 0.937500 0.375000
vt 0.937500 0.625000
vt 0.812500 0.625000
vt 0.687500 0.625000
vt 0.812500 0.500000
vt 0.937500 0.500000
vt 0.812500 0.875000
vt 0.687500 0.500000
vt 0.687500 0.875000
vt 0.859487 0.750000
vt 0.859487 1.000000
vt 0.734375 0.750000
vt 0.734375 1.000000
vt 0.859487 0.375000
vt 0.859487 0.625000
vt 0.734375 0.375000
vt 0.734375 0.625000
vt 0.859487 0.500000
vt 0.859487 0.875000
vt 0.734375 0.500000
vt 0.734375 0.875000
vt 0.890737 0.750000
vt 0.890737 1.000000
vt 0.765625 0.750000
vt 0.765625 1.000000
vt 0.890737 0.375000
vt 0.890737 0.625000
vt 0.765625 0.375000
vt 0.765625 0.625000
vt 0.890737 0.500000
vt 0.890737 0.875000
vt 0.765625 0.500000
vt 0.765625 0.875000
vt 0.652560 0.500000
vt 0.652560 0.517236
vt 0.652560 0.578446
vt 0.984576 0.312500
vt 0.984576 0.267669
vt 0.984576 0.252571
vt 0.109576 0.500000
vt 0.239633 0.500000
vt 0.984576 0.250000
vt 0.989633 0.251296
vt 0.989633 0.250000
vt 0.625000 0.472440
vt 0.519387 0.472440
vt 0.451725 0.472440
vt 0.519387 0.472440
vt 0.989633 0.312500
vt 0.989633 0.268243
s 1
usemtl rus_build_01
f 1/1/1 4/2/2 5/3/3
f 1/1/1 5/3/3 2/4/1
f 5/3/3 3/5/4 2/4/1
f 5/3/3 4/2/2 6/1/5
f 7/4/5 5/3/3 6/1/5
f 7/4/5 8/5/6 5/3/3
f 5/3/3 8/5/6 3/6/4
f 9/1/7 12/2/8 13/3/9
f 9/1/7 13/3/9 10/4/7
f 13/3/9 11/5/6 10/4/7
f 13/3/9 12/2/8 14/1/10
f 15/4/10 13/3/9 14/1/10
f 15/4/10 16/5/11 13/3/9
f 13/3/9 16/5/11 11/6/6
f 17/7/12 19/8/13 18/9/14
f 18/10/14 19/11/13 21/12/15
f 18/10/14 21/12/15 20/13/16
f 20/9/16 21/8/15 22/7/17
f 20/14/16 22/15/17 17/16/12
f 20/14/16 17/16/12 18/17/14
f 23/7/18 25/8/19 24/9/20
f 24/10/20 25/11/19 27/12/21
f 24/10/20 27/12/21 26/13/22
f 26/9/22 27/8/21 28/7/23
f 26/14/22 28/15/23 23/16/18
f 26/14/22 23/16/18 24/17/20
f 29/7/24 31/8/25 30/9/26
f 30/10/26 31/11/25 33/12/27
f 30/10/26 33/12/27 32/13/28
f 32/9/28 33/8/27 34/7/29
f 32/14/28 34/15/29 29/16/24
f 32/14/28 29/16/24 30/17/26
f 35/7/30 37/8/31 36/9/32
f 36/10/32 37/11/31 39/12/33
f 36/10/32 39/12/33 38/13/34
f 38/9/34 39/8/33 40/7/35
f 38/14/34 40/15/35 35/16/30
f 38/14/34 35/16/30 36/17/32
f 41/7/30 43/8/31 42/9/32
f 42/10/32 43/11/31 45/12/33
f 42/10/32 45/12/33 44/13/34
f 44/9/34 45/8/33 46/7/35
f 44/14/34 46/15/35 41/16/30
f 44/14/34 41/16/30 42/17/32
f 47/7/12 49/8/13 48/9/14
f 48/10/14 49/11/13 51/12/15
f 48/10/14 51/12/15 50/13/16
f 50/9/16 51/8/15 52/7/17
f 50/14/16 52/15/17 47/16/12
f 50/14/16 47/16/12 48/17/14
f 53/7/18 55/8/19 54/9/20
f 54/10/20 55/11/19 57/12/21
f 54/10/20 57/12/21 56/13/22
f 56/9/22 57/8/21 58/7/23
f 56/14/22 58/15/23 53/16/18
f 56/14/22 53/16/18 54/17/20
f 59/7/18 61/8/19 60/9/20
f 60/10/20 61/11/19 63/12/21
f 60/10/20 63/12/21 62/13/22
f 62/9/22 63/8/21 64/7/23
f 62/14/22 64/15/23 59/16/18
f 62/14/22 59/16/18 60/17/20
f 65/7/24 67/8/25 66/9/26
f 66/10/26 67/11/25 69/12/27
f 66/10/26 69/12/27 68/13/28
f 68/9/28 69/8/27 70/7/29
f 68/14/28 70/15/29 65/16/24
f 68/14/28 65/16/24 66/17/26
f 71/7/12 73/8/13 72/9/14
f 72/10/14 73/11/13 75/12/15
f 72/10/14 75/12/15 74/13/16
f 74/9/16 75/8/15 76/7/17
f 74/14/16 76/15/17 71/16/12
f 74/14/16 71/16/12 72/17/14
f 79/18/36 80/19/37 78/20/38
f 79/18/36 78/20/38 77/21/39
f 79/18/36 81/22/40 82/23/41
f 79/18/36 82/23/41 80/19/37
f 83/24/42 84/25/43 82/23/41
f 83/24/42 82/23/41 81/22/40
f 83/24/42 85/26/44 86/27/45
f 83/24/42 86/27/45 84/25/43
f 87/28/46 88/29/47 86/27/45
f 87/28/46 86/27/45 85/26/44
f 77/30/39 78/21/38 90/20/48
f 77/30/39 90/20/48 89/31/49
f 80/18/37 91/19/50 90/20/48
f 80/18/37 90/20/48 78/21/38
f 80/18/37 82/22/41 92/23/51
f 80/18/37 92/23/51 91/19/50
f 84/24/43 93/25/52 92/23/51
f 84/24/43 92/23/51 82/22/41
f 84/24/43 86/26/45 94/27/53
f 84/24/43 94/27/53 93/25/52
f 88/28/47 95/29/54 94/27/53
f 88/28/47 94/27/53 86/26/45
f 88/28/47 87/32/46 96/33/55
f 88/28/47 96/33/55 95/29/54
f 91/18/50 97/19/56 89/20/49
f 91/18/50 89/20/49 90/21/48
f 91/18/50 92/22/51 98/23/57
f 91/18/50 98/23/57 97/19/56
f 93/24/52 99/25/58 98/23/57
f 93/24/52 98/23/57 92/22/51
f 93/24/52 94/26/53 100/27/59
f 93/24/52 100/27/59 99/25/58
f 95/28/54 96/29/55 100/27/59
f 95/28/54 100/27/59 94/26/53
f 97/18/56 79/19/36 77/20/39
f 97/18/56 77/20/39 89/21/49
f 97/18/56 98/22/57 81/23/40
f 97/18/56 81/23/40 79/19/36
f 99/24/58 83/25/42 81/23/40
f 99/24/58 81/23/40 98/22/57
f 99/24/58 100/26/59 85/27/44
f 99/24/58 85/27/44 83/25/42
f 96/28/55 87/29/46 85/27/44
f 96/28/55 85/27/44 100/26/59
f 103/18/60 104/19/61 102/20/62
f 103/18/60 102/20/62 101/21/63
f 103/18/60 105/22/64 106/23/65
f 103/18/60 106/23/65 104/19/61
f 107/24/66 108/25/67 106/23/65
f 107/24/66 106/23/65 105/22/64
f 107/24/66 109/26/68 110/27/69
f 107/24/66 110/27/69 108/25/67
f 111/28/70 112/29/71 110/27/69
f 111/28/70 110/27/69 109/26/68
f 101/30/63 102/21/62 114/20/72
f 101/30/63 114/20/72 113/31/73
f 104/18/61 115/19/74 114/20/72
f 104/18/61 114/20/72 102/21/62
f 104/18/61 106/22/65 116/23/75
f 104/18/61 116/23/75 115/19/74
f 108/24/67 117/25/76 116/23/75
f 108/24/67 116/23/75 106/22/65
f 108/24/67 110/26/69 118/27/77
f 108/24/67 118/27/77 117/25/76
f 112/28/71 119/29/78 118/27/77
f 112/28/71 118/27/77 110/26/69
f 112/28/71 111/32/70 120/33/79
f 112/28/71 120/33/79 119/29/78
f 115/18/74 121/19/80 113/20/73
f 115/18/74 113/20/73 114/21/72
f 115/18/74 116/22/75 122/23/81
f 115/18/74 122/23/81 121/19/80
f 117/24/76 123/25/82 122/23/81
f 117/24/76 122/23/81 116/22/75
f 117/24/76 118/26/77 124/27/83
f 117/24/76 124/27/83 123/25/82
f 119/28/78 120/29/79 124/27/83
f 119/28/78 124/27/83 118/26/77
f 121/18/80 103/19/60 101/20/63
f 121/18/80 101/20/63 113/21/73
f 121/18/80 122/22/81 105/23/64
f 121/18/80 105/23/64 103/19/60
f 123/24/82 107/25/66 105/23/64
f 123/24/82 105/23/64 122/22/81
f 123/24/82 124/26/83 109/27/68
f 123/24/82 109/27/68 107/25/66
f 120/28/79 111/29/70 109/27/68
f 120/28/79 109/27/68 124/26/83
f 127/18/84 128/19/85 126/20/86
f 127/18/84 126/20/86 125/21/87
f 127/18/84 129/22/88 130/23/89
f 127/18/84 130/23/89 128/19/85
f 131/24/90 132/25/91 130/23/89
f 131/24/90 130/23/89 129/22/88
f 131/24/90 133/26/92 134/27/93
f 131/24/90 134/27/93 132/25/91
f 135/28/94 136/29/95 134/27/93
f 135/28/94 134/27/93 133/26/92
f 125/30/87 126/21/86 138/20/96
f 125/30/87 138/20/96 137/31/97
f 128/18/85 139/19/98 138/20/96
f 128/18/85 138/20/96 126/21/86
f 128/18/85 130/22/89 140/23/99
f 128/18/85 140/23/99 139/19/98
f 132/24/91 141/25/100 140/23/99
f 132/24/91 140/23/99 130/22/89
f 132/24/91 134/26/93 142/27/101
f 132/24/91 142/27/101 141/25/100
f 136/28/95 143/29/102 142/27/101
f 136/28/95 142/27/101 134/26/93
f 136/28/95 135/32/94 144/33/103
f 136/28/95 144/33/103 143/29/102
f 139/18/98 145/19/104 137/20/97
f 139/18/98 137/20/97 138/21/96
f 139/18/98 140/22/99 146/23/105
f 139/18/98 146/23/105 145/19/104
f 141/24/100 147/25/106 146/23/105
f 141/24/100 146/23/105 140/22/99
f 141/24/100 142/26/101 148/27/107
f 141/24/100 148/27/107 147/25/106
f 143/28/102 144/29/103 148/27/107
f 143/28/102 148/27/107 142/26/101
f 145/18/104 127/19/84 125/20/87
f 145/18/104 125/20/87 137/21/97
f 145/18/104 146/22/105 129/23/88
f 145/18/104 129/23/88 127/19/84
f 147/24/106 131/25/90 129/23/88
f 147/24/106 129/23/88 146/22/105
f 147/24/106 148/26/107 133/27/92
f 147/24/106 133/27/92 131/25/90
f 144/28/103 135/29/94 133/27/92
f 144/28/103 133/27/92 148/26/107
f 151/18/108 152/19/109 150/20/110
f 151/18/108 150/20/110 149/21/111
f 151/18/108 153/22/112 154/23/113
f 151/18/108 154/23/113 152/19/109
f 155/24/114 156/25/115 154/23/113
f 155/24/114 154/23/113 153/22/112
f 155/24/114 157/26/116 158/27/117
f 155/24/114 158/27/117 156/25/115
f 159/28/118 160/29/119 158/27/117
f 159/28/118 158/27/117 157/26/116
f 149/30/111 150/21/110 162/20/120
f 149/30/111 162/20/120 161/31/121
f 152/18/109 163/19/122 162/20/120
f 152/18/109 162/20/120 150/21/110
f 152/18/109 154/22/113 164/23/123
f 152/18/109 164/23/123 163/19/122
f 156/24/115 165/25/124 164/23/123
f 156/24/115 164/23/123 154/22/113
f 156/24/115 158/26/117 166/27/125
f 156/24/115 166/27/125 165/25/124
f 160/28/119 167/29/126 166/27/125
f 160/28/119 166/27/125 158/26/117
f 160/28/119 159/32/118 168/33/127
f 160/28/119 168/33/127 167/29/126
f 163/18/122 169/19/128 161/20/121
f 163/18/122 161/20/121 162/21/120
f 163/18/122 164/22/123 170/23/129
f 163/18/122 170/23/129 169/19/128
f 165/24/124 171/25/130 170/23/129
f 165/24/124 170/23/129 164/22/123
f 165/24/124 166/26/125 172/27/131
f 165/24/124 172/27/131 171/25/130
f 167/28/126 168/29/127 172/27/131
f 167/28/126 172/27/131 166/26/125
f 169/18/128 151/19/108 149/20/111
f 169/18/128 149/20/111 161/21/121
f 169/18/128 170/22/129 153/23/112
f 169/18/128 153/23/112 151/19/108
f 171/24/130 155/25/114 153/23/112
f 171/24/130 153/23/112 170/22/129
f 171/24/130 172/26/131 157/27/116
f 171/24/130 157/27/116 155/25/114
f 168/28/127 159/29/118 157/27/116
f 168/28/127 157/27/116 172/26/131
f 173/34/132 175/35/133 176/2/134
f 173/34/132 176/2/134 174/36/135
f 177/37/132 179/38/136 180/32/134
f 177/37/132 180/32/134 178/39/137
f 173/40/132 182/41/138 181/42/138
f 173/40/132 181/42/138 177/43/139
f 184/44/138 174/40/135 179/43/138
f 184/44/138 179/43/138 183/45/138
f 181/46/138 182/47/138 184/44/138
f 181/46/138 184/44/138 183/45/138
f 185/48/138 187/49/138 188/50/140
f 185/48/138 188/50/140 186/51/141
f 189/52/138 185/53/138 186/54/141
f 189/52/138 186/54/141 190/55/142
f 179/52/138 174/53/135 192/54/136
f 179/52/138 192/54/136 191/55/136
f 174/34/135 176/35/134 193/56/136
f 174/34/135 193/56/136 192/57/136
f 194/48/143 195/49/143 175/50/133
f 194/48/143 175/50/133 173/51/132
f 196/52/143 194/53/143 173/54/132
f 196/52/143 173/54/132 177/55/139
f 197/52/136 199/53/144 200/54/145
f 197/52/136 200/54/145 198/55/145
f 199/34/144 201/35/146 202/56/145
f 199/34/144 202/56/145 200/57/145
f 186/34/141 188/35/140 201/2/146
f 186/34/141 201/2/146 199/36/144
f 190/37/141 197/38/145 204/32/146
f 190/37/141 204/32/146 203/39/134
f 186/40/141 206/41/136 205/42/136
f 186/40/141 205/42/136 190/43/142
f 208/44/136 199/40/144 197/43/136
f 208/44/136 197/43/136 207/45/136
f 205/46/136 206/47/136 208/44/136
f 205/46/136 208/44/136 207/45/136
f 209/58/147 211/10/147 212/59/147
f 209/58/147 212/59/147 210/60/147
f 213/46/136 215/47/136 216/44/136
f 213/46/136 216/44/136 214/45/136
f 217/61/136 219/62/136 220/63/136
f 217/61/136 220/63/136 218/64/136
f 221/65/136 217/66/136 218/62/136
f 221/65/136 218/62/136 222/67/136
f 223/42/136 221/68/136 222/69/136
f 223/42/136 222/69/136 213/52/136
f 191/46/136 192/47/136 621/70/136 628/71/136 640/72/136
f 191/46/136 640/72/136 641/73/136 475/74/136 224/45/136
f 224/46/136 644/75/136 643/76/136 620/77/136
f 224/46/136 620/77/136 643/76/136 639/78/136 637/79/136 225/80/136 223/81/136
f 226/82/143 228/83/143 229/84/143
f 226/82/143 229/84/143 227/30/143
f 228/82/143 177/85/132 178/86/137
f 228/82/143 178/86/137 229/30/143
f 228/46/143 231/47/143 651/87/143 638/88/143 645/89/143
f 228/46/143 645/89/143 629/90/143 230/45/143
f 230/46/143 629/75/143 630/89/143
f 230/46/143 630/89/143 631/91/143 653/92/143 194/44/143 196/45/143
f 179/82/136 232/83/136 233/84/136
f 179/82/136 233/84/136 180/30/134
f 232/82/136 234/85/136 235/86/136
f 232/82/136 235/86/136 233/30/136
f 236/46/143 237/47/143 231/44/143
f 236/46/143 231/44/143 228/45/143
f 224/46/136 644/75/136 642/76/136
f 224/46/136 642/76/136 634/93/136 635/94/136 225/80/136 223/81/136
f 226/46/143 238/47/143 237/80/143
f 226/46/143 237/80/143 236/81/143
f 214/46/136 216/47/136 239/80/136
f 214/46/136 239/80/136 234/81/136
f 240/58/148 242/10/148 243/59/148
f 240/58/148 243/59/148 241/60/148
f 244/46/138 246/47/138 247/44/138
f 244/46/138 247/44/138 245/45/138
f 248/61/138 250/62/138 251/63/138
f 248/61/138 251/63/138 249/64/138
f 252/65/138 248/66/138 249/62/138
f 252/65/138 249/62/138 253/67/138
f 254/42/138 252/68/138 253/69/138
f 254/42/138 253/69/138 244/52/138
f 255/46/138 257/47/138 258/44/138 460/95/138
f 255/46/138 460/95/138 258/44/138 256/45/138
f 256/46/138 258/47/138 259/80/138
f 256/46/138 259/80/138 254/81/138
f 197/82/145 260/83/145 261/84/145
f 197/82/145 261/84/145 204/30/146
f 260/82/145 262/85/145 263/86/145
f 260/82/145 263/86/145 261/30/145
f 264/46/145 266/47/145 267/44/145
f 264/46/145 267/44/145 265/45/145
f 265/46/145 267/47/145 268/44/145
f 265/46/145 268/44/145 262/45/145
f 255/82/138 254/83/138 270/84/138
f 255/82/138 270/84/138 269/30/138
f 254/82/138 190/85/141 203/86/134
f 254/82/138 203/86/134 270/30/138
f 271/46/145 272/47/145 266/44/145
f 271/46/145 266/44/145 264/45/145
f 255/46/138 257/47/138 258/44/138
f 255/46/138 258/44/138 256/45/138
f 198/46/145 200/47/145 272/80/145
f 198/46/145 272/80/145 271/81/145
f 245/46/138 247/47/138 185/80/138
f 245/46/138 185/80/138 189/81/138
f 273/58/148 275/10/148 276/59/148
f 273/58/148 276/59/148 274/60/148
f 277/96/138 279/47/138 257/44/138
f 277/96/138 257/44/138 278/74/138
f 280/64/138 282/63/138 283/3/138
f 280/64/138 283/3/138 281/97/138
f 284/65/138 280/66/138 281/62/138
f 284/65/138 281/62/138 285/67/138
f 286/42/138 284/41/138 285/98/138
f 286/42/138 285/98/138 287/52/138
f 288/82/145 290/83/145 291/84/145
f 288/82/145 291/84/145 289/30/146
f 290/82/145 292/85/143 293/86/149
f 290/82/145 293/86/149 291/30/145
f 294/96/145 296/47/145 297/44/145
f 294/96/145 297/44/145 295/74/145
f 295/96/145 297/47/145 299/44/145
f 295/96/145 299/44/145 298/74/150
f 286/82/138 301/83/141 302/84/138
f 286/82/138 302/84/138 300/30/136
f 303/96/145 304/47/145 296/44/145
f 303/96/145 296/44/145 294/74/145
f 305/96/145 268/47/145 304/80/145
f 305/96/145 304/80/145 303/95/145
f 287/46/138 277/99/138 278/100/138
f 287/46/138 278/100/138 301/45/138
f 290/46/145 294/99/145 295/100/145
f 290/46/145 295/100/145 306/45/145
f 306/46/145 295/99/145 298/100/150
f 306/46/145 298/100/150 292/45/133
f 307/46/145 303/99/145 294/100/145
f 307/46/145 294/100/145 290/45/145
f 288/46/145 305/99/145 303/101/145
f 288/46/145 303/101/145 307/81/145
f 301/45/136 255/102/136 309/103/136
f 301/45/136 309/103/136 308/42/136
f 308/45/136 309/102/136 262/103/136
f 308/45/136 262/103/136 288/42/136
f 301/37/141 288/38/145 289/32/146
f 301/37/141 289/32/146 302/39/138
f 310/104/1 313/105/151 314/3/152
f 310/104/1 314/3/152 311/4/1
f 314/3/152 312/5/4 311/4/1
f 314/3/152 313/105/151 315/106/5
f 316/4/5 314/3/152 315/106/5
f 316/4/5 317/5/6 314/3/152
f 314/3/152 317/5/6 312/6/4
f 318/7/30 320/8/31 319/9/32
f 319/10/32 320/11/31 322/12/33
f 319/10/32 322/12/33 321/13/34
f 321/9/34 322/8/33 323/7/35
f 321/14/34 323/15/35 318/16/30
f 321/14/34 318/16/30 319/17/32
f 324/7/30 326/8/31 325/9/32
f 325/10/32 326/11/31 328/12/33
f 325/10/32 328/12/33 327/13/34
f 327/9/34 328/8/33 329/7/35
f 327/14/34 329/15/35 324/16/30
f 327/14/34 324/16/30 325/17/32
f 330/7/12 332/8/13 331/9/14
f 331/10/14 332/11/13 334/12/15
f 331/10/14 334/12/15 333/13/16
f 333/9/16 334/8/15 335/7/17
f 333/14/16 335/15/17 330/16/12
f 333/14/16 330/16/12 331/17/14
f 336/7/18 338/8/19 337/9/20
f 337/10/20 338/11/19 340/12/21
f 337/10/20 340/12/21 339/13/22
f 339/9/22 340/8/21 341/7/23
f 339/14/22 341/15/23 336/16/18
f 339/14/22 336/16/18 337/17/20
f 310/4/1 342/5/153 313/3/151
f 231/34/143 343/35/143 650/107/143 646/108/143
f 231/34/143 646/108/143 647/109/143
f 344/34/143 345/35/143 343/2/143
f 344/34/143 343/2/143 231/36/143
f 268/34/145 347/35/145 348/2/145
f 268/34/145 348/2/145 346/36/145
f 266/34/145 349/35/145 347/2/145
f 266/34/145 347/2/145 268/36/145
f 200/51/145 202/50/145 349/2/145
f 200/51/145 349/2/145 266/36/145
f 246/51/138 251/50/138 187/2/138
f 246/51/138 187/2/138 185/36/138
f 257/51/138 350/50/138 250/2/138
f 257/51/138 250/2/138 259/36/138
f 279/110/138 283/105/138 350/2/138
f 279/110/138 350/2/138 257/36/138
f 215/51/136 220/50/136 351/2/136
f 215/51/136 351/2/136 239/36/136
f 192/51/136 193/50/136 624/111/136 625/112/136
f 192/51/136 625/112/136 626/113/136
f 292/82/143 352/83/143 353/84/143
f 292/82/143 353/84/143 293/30/149
f 352/82/143 354/85/132 355/86/137
f 352/82/143 355/86/137 353/30/143
f 356/96/143 358/47/143 359/44/143
f 356/96/143 359/44/143 357/74/143
f 357/96/143 359/47/143 238/44/143
f 357/96/143 238/44/143 360/74/143
f 361/96/143 362/47/143 358/44/143
f 361/96/143 358/44/143 356/74/143
f 298/96/150 299/47/145 362/80/143
f 298/96/150 362/80/143 361/95/143
f 352/46/143 356/99/143 357/100/143
f 352/46/143 357/100/143 363/45/143
f 363/46/143 357/99/143 360/100/143
f 363/46/143 360/100/143 354/45/143
f 364/46/143 361/99/143 356/100/143
f 364/46/143 356/100/143 352/45/143
f 292/46/133 298/99/150 361/101/143
f 292/46/133 361/101/143 364/81/143
f 299/34/154 366/35/155 367/2/143
f 299/34/154 367/2/143 365/36/143
f 346/51/145 348/50/145 366/2/155
f 346/51/145 366/2/155 299/36/154
f 368/96/136 239/47/136 370/80/136
f 368/96/136 370/80/136 369/95/136
f 369/96/136 370/47/136 372/44/136
f 369/96/136 372/44/136 371/74/136
f 373/46/136 368/99/136 369/101/136
f 373/46/136 369/101/136 374/81/136
f 374/46/136 369/99/136 371/100/136
f 374/46/136 371/100/136 286/45/136
f 373/82/136 286/83/138 300/84/136
f 373/82/136 300/84/136 375/30/134
f 354/45/138 226/102/138 377/103/138
f 354/45/138 377/103/138 376/42/138
f 376/45/138 377/102/138 234/103/138
f 376/45/138 234/103/138 373/42/138
f 354/37/132 373/38/136 375/32/134
f 354/37/132 375/32/134 355/39/137
f 239/51/136 351/50/136 282/2/136
f 239/51/136 282/2/136 372/36/136
f 365/110/143 367/105/143 345/2/143
f 365/110/143 345/2/143 344/36/143
f 378/104/10 380/105/156 313/3/151
f 378/104/10 313/3/151 379/4/10
f 313/3/151 342/5/153 379/4/10
f 313/3/151 380/105/156 381/104/7
f 315/114/5 313/3/151 381/104/7
f 382/7/24 384/8/25 383/9/26
f 383/10/26 384/11/25 386/12/27
f 383/10/26 386/12/27 385/13/28
f 385/9/28 386/8/27 387/7/29
f 385/14/28 387/15/29 382/16/24
f 385/14/28 382/16/24 383/17/26
f 388/7/24 390/8/25 389/9/26
f 389/10/26 390/11/25 392/12/27
f 389/10/26 392/12/27 391/13/28
f 391/9/28 392/8/27 393/7/29
f 391/14/28 393/15/29 388/16/24
f 391/14/28 388/16/24 389/17/26
f 394/7/12 396/8/13 395/9/14
f 395/10/14 396/11/13 398/12/15
f 395/10/14 398/12/15 397/13/16
f 397/9/16 398/8/15 399/7/17
f 397/14/16 399/15/17 394/16/12
f 397/14/16 394/16/12 395/17/14
f 380/3/156 400/5/6 381/4/7
f 378/4/10 401/5/11 380/3/156
f 380/3/156 401/5/11 400/6/6
f 402/7/18 404/8/19 403/9/20
f 403/10/20 404/11/19 406/12/21
f 403/10/20 406/12/21 405/13/22
f 405/9/22 406/8/21 407/7/23
f 405/14/22 407/15/23 402/16/18
f 405/14/22 402/16/18 403/17/20
f 410/115/157 411/116/138 409/117/158
f 410/115/157 409/117/158 408/118/145
f 230/119/159 414/120/160 413/121/158
f 230/119/159 413/121/158 412/117/161
f 417/119/162 418/120/163 416/121/157
f 417/119/162 416/121/157 415/117/164
f 236/119/159 408/120/145 409/121/158
f 236/119/159 409/121/158 419/117/161
f 421/119/162 411/120/138 410/121/157
f 421/119/162 410/121/157 420/117/164
f 416/122/157 418/115/163 413/118/158
f 416/122/157 413/118/158 414/31/160
f 424/123/165 425/124/143 423/125/166
f 424/123/165 423/125/166 422/126/136
f 265/119/159 428/120/167 427/121/166
f 265/119/159 427/121/166 426/117/168
f 431/119/162 432/120/169 430/121/165
f 431/119/162 430/121/165 429/117/170
f 271/119/159 422/120/136 423/121/166
f 271/119/159 423/121/166 433/117/168
f 435/119/162 425/120/143 424/121/165
f 435/119/162 424/121/165 434/117/170
f 430/33/165 432/123/169 427/126/166
f 430/33/165 427/126/166 428/127/167
f 438/128/165 439/129/171 437/119/172
f 438/128/165 437/119/172 436/130/173
f 306/119/159 442/120/174 441/121/166
f 306/119/159 441/121/166 440/117/168
f 444/119/162 445/120/175 443/121/165
f 444/119/162 443/121/165 295/117/170
f 307/119/159 436/120/173 437/121/172
f 307/119/159 437/121/172 446/117/168
f 447/119/162 439/120/171 438/121/165
f 447/119/162 438/121/165 303/117/170
f 443/131/165 445/128/175 441/130/166
f 443/131/165 441/130/166 442/132/174
f 411/115/138 421/133/162 419/134/161
f 411/115/138 419/134/161 409/118/158
f 418/122/163 417/135/162 412/136/161
f 418/122/163 412/136/161 413/31/158
f 425/123/143 435/137/162 433/138/168
f 425/123/143 433/138/168 423/126/166
f 432/33/169 431/139/162 426/140/168
f 432/33/169 426/140/168 427/127/166
f 439/128/171 447/141/162 446/142/168
f 439/128/171 446/142/168 437/130/172
f 445/131/175 444/143/162 440/144/168
f 445/131/175 440/144/168 441/132/166
f 420/145/164 410/116/157 408/117/145
f 420/145/164 408/117/145 236/146/159
f 415/147/164 416/115/157 414/118/160
f 415/147/164 414/118/160 230/148/159
f 434/149/170 424/124/165 422/125/136
f 434/149/170 422/125/136 271/150/159
f 429/151/170 430/123/165 428/126/167
f 429/151/170 428/126/167 265/152/159
f 303/153/170 438/129/165 436/119/173
f 303/153/170 436/119/173 307/154/159
f 295/155/170 443/128/165 442/130/174
f 295/155/170 442/130/174 306/156/159
f 450/115/176 451/116/136 449/117/177
f 450/115/176 449/117/177 448/118/143
f 453/119/159 454/120/178 452/121/177
f 453/119/159 452/121/177 245/117/173
f 457/119/162 458/120/179 456/121/176
f 457/119/162 456/121/176 455/117/171
f 459/119/159 448/120/143 449/121/177
f 459/119/159 449/121/177 256/117/173
f 461/119/162 451/120/136 450/121/176
f 461/119/162 450/121/176 460/117/171
f 456/122/176 458/115/179 452/118/177
f 456/122/176 452/118/177 454/31/178
f 464/123/180 465/124/145 463/125/181
f 464/123/180 463/125/181 462/126/138
f 467/119/159 468/120/182 466/121/181
f 467/119/159 466/121/181 214/117/183
f 471/119/162 472/120/184 470/121/180
f 471/119/162 470/121/180 469/117/185
f 473/119/159 462/120/138 463/121/181
f 473/119/159 463/121/181 224/117/183
f 475/119/162 465/120/145 464/121/180
f 475/119/162 464/121/180 474/117/185
f 470/33/180 472/123/184 466/126/181
f 470/33/180 466/126/181 468/127/182
f 478/128/180 479/129/164 477/119/186
f 478/128/180 477/119/186 476/130/161
f 287/119/159 482/120/187 481/121/177
f 287/119/159 481/121/177 480/117/173
f 484/119/162 485/120/188 483/121/176
f 484/119/162 483/121/176 277/117/171
f 374/119/159 476/120/161 477/121/186
f 374/119/159 477/121/186 486/117/183
f 487/119/162 479/120/164 478/121/180
f 487/119/162 478/121/180 369/117/185
f 483/131/176 485/128/188 481/130/177
f 483/131/176 481/130/177 482/132/187
f 451/115/136 461/133/162 256/134/173
f 451/115/136 256/134/173 449/118/177
f 458/122/179 457/135/162 245/136/173
f 458/122/179 245/136/173 452/31/177
f 465/123/145 475/137/162 224/138/183
f 465/123/145 224/138/183 463/126/181
f 472/33/184 471/139/162 214/140/183
f 472/33/184 214/140/183 466/127/181
f 479/128/164 487/141/162 486/142/183
f 479/128/164 486/142/183 477/130/186
f 485/131/188 484/143/162 480/144/173
f 485/131/188 480/144/173 481/132/177
f 460/145/171 450/116/176 448/117/143
f 460/145/171 448/117/143 459/146/159
f 455/147/171 456/115/176 454/118/178
f 455/147/171 454/118/178 453/148/159
f 474/149/185 464/124/180 462/125/138
f 474/149/185 462/125/138 473/150/159
f 469/151/185 470/123/180 468/126/182
f 469/151/185 468/126/182 467/152/159
f 369/153/185 478/129/180 476/119/161
f 369/153/185 476/119/161 374/154/159
f 277/155/171 483/128/176 482/130/187
f 277/155/171 482/130/187 287/156/159
f 490/128/157 491/129/185 489/119/189
f 490/128/157 489/119/189 488/130/183
f 363/119/159 494/120/183 493/121/158
f 363/119/159 493/121/158 492/117/161
f 496/119/162 497/120/185 495/121/157
f 496/119/162 495/121/157 357/117/164
f 364/119/159 488/120/183 489/121/189
f 364/119/159 489/121/189 498/117/190
f 499/119/162 491/120/185 490/121/157
f 499/119/162 490/121/157 361/117/164
f 495/131/157 497/128/185 493/130/158
f 495/131/157 493/130/158 494/132/183
f 491/128/185 499/141/162 498/142/190
f 491/128/185 498/142/190 489/130/189
f 497/131/185 496/143/162 492/144/161
f 497/131/185 492/144/161 493/132/158
f 361/153/164 490/129/157 488/119/183
f 361/153/164 488/119/183 364/154/159
f 357/155/164 495/128/157 494/130/183
f 357/155/164 494/130/183 363/156/159
f 502/18/36 503/19/37 501/20/38
f 502/18/36 501/20/38 500/21/39
f 502/18/36 504/22/191 505/23/41
f 502/18/36 505/23/41 503/19/37
f 506/24/42 507/25/43 505/23/41
f 506/24/42 505/23/41 504/22/191
f 506/24/42 508/26/44 509/27/45
f 506/24/42 509/27/45 507/25/43
f 510/28/46 511/29/47 509/27/45
f 510/28/46 509/27/45 508/26/44
f 500/30/39 501/21/38 513/20/48
f 500/30/39 513/20/48 512/31/49
f 503/18/37 514/19/192 513/20/48
f 503/18/37 513/20/48 501/21/38
f 503/18/37 505/22/41 515/23/51
f 503/18/37 515/23/51 514/19/192
f 507/24/43 516/25/52 515/23/51
f 507/24/43 515/23/51 505/22/41
f 507/24/43 509/26/45 517/27/53
f 507/24/43 517/27/53 516/25/52
f 511/28/47 518/29/54 517/27/53
f 511/28/47 517/27/53 509/26/45
f 511/28/47 510/32/46 519/33/55
f 511/28/47 519/33/55 518/29/54
f 514/18/192 520/19/56 512/20/49
f 514/18/192 512/20/49 513/21/48
f 514/18/192 515/22/51 521/23/57
f 514/18/192 521/23/57 520/19/56
f 516/24/52 522/25/58 521/23/57
f 516/24/52 521/23/57 515/22/51
f 516/24/52 517/26/53 523/27/59
f 516/24/52 523/27/59 522/25/58
f 518/28/54 519/29/55 523/27/59
f 518/28/54 523/27/59 517/26/53
f 520/18/56 502/19/36 500/20/39
f 520/18/56 500/20/39 512/21/49
f 520/18/56 521/22/57 504/23/191
f 520/18/56 504/23/191 502/19/36
f 522/24/58 506/25/42 504/23/191
f 522/24/58 504/23/191 521/22/57
f 522/24/58 523/26/59 508/27/44
f 522/24/58 508/27/44 506/25/42
f 519/28/55 510/29/46 508/27/44
f 519/28/55 508/27/44 523/26/59
f 526/18/108 527/19/109 525/20/110
f 526/18/108 525/20/110 524/21/111
f 526/18/108 528/22/193 529/23/113
f 526/18/108 529/23/113 527/19/109
f 530/24/194 531/25/115 529/23/113
f 530/24/194 529/23/113 528/22/193
f 530/24/194 532/26/116 533/27/117
f 530/24/194 533/27/117 531/25/115
f 534/28/118 535/29/119 533/27/117
f 534/28/118 533/27/117 532/26/116
f 524/30/111 525/21/110 537/20/120
f 524/30/111 537/20/120 536/31/121
f 527/18/109 538/19/122 537/20/120
f 527/18/109 537/20/120 525/21/110
f 527/18/109 529/22/113 539/23/123
f 527/18/109 539/23/123 538/19/122
f 531/24/115 540/25/124 539/23/123
f 531/24/115 539/23/123 529/22/113
f 531/24/115 533/26/117 541/27/125
f 531/24/115 541/27/125 540/25/124
f 535/28/119 542/29/126 541/27/125
f 535/28/119 541/27/125 533/26/117
f 535/28/119 534/32/118 543/33/127
f 535/28/119 543/33/127 542/29/126
f 538/18/122 544/19/195 536/20/121
f 538/18/122 536/20/121 537/21/120
f 538/18/122 539/22/123 545/23/129
f 538/18/122 545/23/129 544/19/195
f 540/24/124 546/25/130 545/23/129
f 540/24/124 545/23/129 539/22/123
f 540/24/124 541/26/125 547/27/131
f 540/24/124 547/27/131 546/25/130
f 542/28/126 543/29/127 547/27/131
f 542/28/126 547/27/131 541/26/125
f 544/18/195 526/19/108 524/20/111
f 544/18/195 524/20/111 536/21/121
f 544/18/195 545/22/129 528/23/193
f 544/18/195 528/23/193 526/19/108
f 546/24/130 530/25/194 528/23/193
f 546/24/130 528/23/193 545/22/129
f 546/24/130 547/26/131 532/27/116
f 546/24/130 532/27/116 530/25/194
f 543/28/127 534/29/118 532/27/116
f 543/28/127 532/27/116 547/26/131
f 550/18/60 551/19/61 549/20/62
f 550/18/60 549/20/62 548/21/63
f 550/18/60 552/22/196 553/23/65
f 550/18/60 553/23/65 551/19/61
f 554/24/197 555/25/67 553/23/65
f 554/24/197 553/23/65 552/22/196
f 554/24/197 556/26/68 557/27/69
f 554/24/197 557/27/69 555/25/67
f 558/28/70 559/29/71 557/27/69
f 558/28/70 557/27/69 556/26/68
f 548/30/63 549/21/62 561/20/72
f 548/30/63 561/20/72 560/31/73
f 551/18/61 562/19/74 561/20/72
f 551/18/61 561/20/72 549/21/62
f 551/18/61 553/22/65 563/23/75
f 551/18/61 563/23/75 562/19/74
f 555/24/67 564/25/76 563/23/75
f 555/24/67 563/23/75 553/22/65
f 555/24/67 557/26/69 565/27/77
f 555/24/67 565/27/77 564/25/76
f 559/28/71 566/29/78 565/27/77
f 559/28/71 565/27/77 557/26/69
f 559/28/71 558/32/70 567/33/79
f 559/28/71 567/33/79 566/29/78
f 562/18/74 568/19/80 560/20/73
f 562/18/74 560/20/73 561/21/72
f 562/18/74 563/22/75 569/23/81
f 562/18/74 569/23/81 568/19/80
f 564/24/76 570/25/82 569/23/81
f 564/24/76 569/23/81 563/22/75
f 564/24/76 565/26/77 571/27/83
f 564/24/76 571/27/83 570/25/82
f 566/28/78 567/29/79 571/27/83
f 566/28/78 571/27/83 565/26/77
f 568/18/80 550/19/60 548/20/63
f 568/18/80 548/20/63 560/21/73
f 568/18/80 569/22/81 552/23/196
f 568/18/80 552/23/196 550/19/60
f 570/24/82 554/25/197 552/23/196
f 570/24/82 552/23/196 569/22/81
f 570/24/82 571/26/83 556/27/68
f 570/24/82 556/27/68 554/25/197
f 567/28/79 558/29/70 556/27/68
f 567/28/79 556/27/68 571/26/83
f 574/18/84 575/19/85 573/20/86
f 574/18/84 573/20/86 572/21/87
f 574/18/84 576/22/198 577/23/199
f 574/18/84 577/23/199 575/19/85
f 578/24/200 580/26/201 581/27/93
f 578/24/200 581/27/93 579/25/202
f 582/28/94 583/29/95 581/27/93
f 582/28/94 581/27/93 580/26/201
f 572/30/87 573/21/86 585/20/96
f 572/30/87 585/20/96 584/31/97
f 575/18/85 586/19/98 585/20/96
f 575/18/85 585/20/96 573/21/86
f 575/18/85 577/22/199 587/23/99
f 575/18/85 587/23/99 586/19/98
f 579/24/202 588/25/100 587/23/99
f 579/24/202 587/23/99 577/22/199
f 579/24/202 581/26/93 589/27/101
f 579/24/202 589/27/101 588/25/100
f 583/28/95 590/29/102 589/27/101
f 583/28/95 589/27/101 581/26/93
f 583/28/95 582/32/94 591/33/103
f 583/28/95 591/33/103 590/29/102
f 586/18/98 592/19/104 584/20/97
f 586/18/98 584/20/97 585/21/96
f 586/18/98 587/22/99 593/23/203
f 586/18/98 593/23/203 592/19/104
f 588/24/100 594/25/204 593/23/203
f 588/24/100 593/23/203 587/22/99
f 588/24/100 589/26/101 595/27/107
f 588/24/100 595/27/107 594/25/204
f 590/28/102 591/29/103 595/27/107
f 590/28/102 595/27/107 589/26/101
f 592/18/104 574/19/84 572/20/87
f 592/18/104 572/20/87 584/21/97
f 592/18/104 593/22/203 576/23/198
f 592/18/104 576/23/198 574/19/84
f 594/24/204 595/26/107 580/27/201
f 591/28/103 582/29/94 580/27/201
f 591/28/103 580/27/201 595/26/107
f 598/18/84 599/19/85 597/20/86
f 598/18/84 597/20/86 596/21/87
f 598/18/84 600/22/198 601/23/199
f 598/18/84 601/23/199 599/19/85
f 602/24/200 604/26/201 605/27/93
f 602/24/200 605/27/93 603/25/202
f 606/28/94 607/29/95 605/27/93
f 606/28/94 605/27/93 604/26/201
f 596/30/87 597/21/86 609/20/96
f 596/30/87 609/20/96 608/31/97
f 599/18/85 610/19/98 609/20/96
f 599/18/85 609/20/96 597/21/86
f 599/18/85 601/22/199 611/23/99
f 599/18/85 611/23/99 610/19/98
f 603/24/202 612/25/100 611/23/99
f 603/24/202 611/23/99 601/22/199
f 603/24/202 605/26/93 613/27/101
f 603/24/202 613/27/101 612/25/100
f 607/28/95 614/29/102 613/27/101
f 607/28/95 613/27/101 605/26/93
f 607/28/95 606/32/94 615/33/103
f 607/28/95 615/33/103 614/29/102
f 610/18/98 616/19/104 608/20/97
f 610/18/98 608/20/97 609/21/96
f 610/18/98 611/22/99 617/23/203
f 610/18/98 617/23/203 616/19/104
f 612/24/100 618/25/204 617/23/203
f 612/24/100 617/23/203 611/22/99
f 612/24/100 613/26/101 619/27/107
f 612/24/100 619/27/107 618/25/204
f 614/28/102 615/29/103 619/27/107
f 614/28/102 619/27/107 613/26/101
f 616/18/104 598/19/84 596/20/87
f 616/18/104 596/20/87 608/21/97
f 616/18/104 617/22/203 600/23/198
f 616/18/104 600/23/198 598/19/84
f 618/24/204 619/26/107 604/27/201
f 615/28/103 606/29/94 604/27/201
f 615/28/103 604/27/201 619/26/107
s 0
f 634/157/205 639/157/205 643/158/205 644/159/205 642/158/205
s 1
f 633/160/136 632/161/136 649/162/136 219/2/136 225/36/136
f 635/94/136 636/163/136 225/80/136
f 653/92/143 652/164/143 194/44/143
f 649/162/136 648/165/136 219/2/136
f 623/166/143 627/167/143 195/2/143
f 637/79/136 636/163/136 225/80/136
s 0
f 639/168/138 634/168/138 635/169/138 636/170/138 637/171/138
s 1
f 654/172/143 622/173/143 623/166/143 195/2/143 194/36/143
