# Blender 5.0.1
# www.blender.org
mtllib cutted_shop.mtl
g rus_build_5et_03_rus_build_5et_03
v -57.000000 3.999999 -16.000000
v -57.000000 4.000001 16.000000
v -57.000000 -0.000001 -16.000000
v -57.000000 0.000001 16.000000
v -57.000000 44.000000 -16.000004
v -57.000000 45.000000 -16.000004
v -57.000000 44.000000 15.999997
v -57.000000 45.000000 15.999996
v -57.000000 44.000000 -16.000004
v -57.000000 44.000000 -8.000003
v -57.000000 3.999999 -16.000000
v -57.000000 3.999999 -8.000000
v -57.000000 44.000000 7.999997
v -57.000000 44.000000 15.999997
v -57.000000 4.000000 8.000000
v -57.000000 4.000001 16.000000
v -57.000000 44.000000 -8.000003
v -57.000000 44.000000 7.999997
v -57.000000 3.999999 -8.000000
v -57.000000 4.000000 8.000000
v -25.000000 7.000001 19.000000
v -31.000000 7.000001 19.000000
v -25.000000 7.500001 15.999999
v -31.000000 7.500001 15.999999
v -25.000000 7.000001 19.000000
v -31.000000 7.000001 19.000000
v -25.000000 7.500001 15.999999
v -31.000000 7.500001 15.999999
v -8.000000 44.000000 15.999997
v 8.000000 44.000000 15.999997
v -8.000000 4.000001 16.000000
v 8.000000 4.000001 16.000000
v -57.000000 44.000000 15.999997
v -57.000000 45.000000 15.999996
v -16.000000 44.000000 15.999997
v -16.000000 45.000000 15.999996
v -16.000000 44.000000 15.999997
v -16.000000 45.000000 15.999996
v 24.000000 44.000000 15.999997
v 24.000000 45.000000 15.999996
v 24.000000 44.000000 15.999997
v 24.000000 45.000000 15.999996
v 57.000000 44.000000 15.999997
v 57.000000 45.000000 15.999996
v -56.000000 4.000001 16.000000
v -32.000000 4.000001 16.000000
v -56.000000 0.000001 16.000000
v -32.000000 0.000001 16.000000
v -24.000000 4.000001 16.000000
v 8.000000 4.000001 16.000000
v -24.000000 0.000001 16.000000
v 8.000000 0.000001 16.000000
v 56.000000 4.000001 16.000000
v 32.000000 0.000001 16.000000
v 56.000000 0.000001 16.000000
v 8.000000 4.000001 16.000000
v 8.000000 0.000001 16.000000
v -24.000000 44.000000 15.999997
v -16.000000 44.000000 15.999997
v -24.000000 4.000001 16.000000
v -16.000000 4.000001 16.000000
v -48.000000 44.000000 18.999996
v -40.000000 44.000000 18.999996
v -48.000000 12.000002 19.000000
v -40.000000 12.000002 19.000000
v -8.000000 44.000000 15.999997
v -8.000000 44.000000 18.999996
v -16.000000 44.000000 15.999997
v -16.000000 44.000000 18.999996
v -16.000000 12.000001 15.999999
v -16.000000 12.000002 19.000000
v -8.000000 12.000001 15.999999
v -8.000000 12.000002 19.000000
v -40.000000 44.000000 15.999997
v -40.000000 44.000000 18.999996
v -48.000000 44.000000 15.999997
v -48.000000 44.000000 18.999996
v -48.000000 12.000001 15.999999
v -48.000000 12.000002 19.000000
v -40.000000 12.000001 15.999999
v -40.000000 12.000002 19.000000
v 56.000000 4.000001 16.000000
v 57.000000 4.000001 16.000000
v 56.000000 0.000001 16.000000
v 57.000000 0.000001 16.000000
v 56.000000 44.000000 15.999997
v 57.000000 44.000000 15.999997
v 56.000000 4.000001 16.000000
v 57.000000 4.000001 16.000000
v -57.000000 44.000000 15.999997
v -56.000000 44.000000 15.999997
v -57.000000 4.000001 16.000000
v -56.000000 4.000001 16.000000
v -57.000000 4.000001 16.000000
v -56.000000 4.000001 16.000000
v -57.000000 0.000001 16.000000
v -56.000000 0.000001 16.000000
v -16.000000 44.000000 18.999996
v -8.000000 44.000000 18.999996
v -16.000000 12.000002 19.000000
v -8.000000 12.000002 19.000000
v 16.000000 44.000000 15.999997
v 24.000000 44.000000 15.999997
v 16.000000 4.000001 16.000000
v -32.000000 8.000001 15.999999
v -24.000000 8.000001 15.999999
v -32.000000 0.000001 16.000000
v -24.000000 0.000001 16.000000
v -32.000000 12.000001 15.999999
v -24.000000 12.000001 15.999999
v -32.000000 8.000001 15.999999
v -24.000000 8.000001 15.999999
v -32.000000 44.000000 15.999997
v -24.000000 44.000000 15.999997
v -32.000000 12.000001 15.999999
v -24.000000 12.000001 15.999999
v 24.000000 44.000000 15.999997
v 32.000000 44.000000 15.999997
v -56.519199 44.500000 17.826889
v -56.769199 44.250000 18.076889
v -56.519199 44.000000 16.576891
v -56.769199 43.750000 16.826891
v -56.519199 43.250000 16.076889
v -56.769199 43.000000 16.326891
v -56.519199 3.250001 16.076893
v -56.769199 3.500001 16.326895
v -56.519199 2.500001 16.326893
v -56.769199 2.750001 16.576895
v -56.519199 2.250001 16.826895
v -56.769199 2.500001 17.076895
v -56.519199 44.500000 17.826889
v -56.269199 44.250000 18.076889
v -56.769199 44.250000 18.076889
v -56.519199 44.000000 18.326889
v -56.769199 43.750000 16.826891
v -56.519199 43.500000 17.076891
v -56.769199 43.000000 16.326891
v -56.519199 43.000000 16.576891
v -56.769199 3.500001 16.326895
v -56.519199 3.500001 16.576895
v -56.769199 2.750001 16.576895
v -56.519199 3.000001 16.826895
v -56.769199 2.500001 17.076895
v -56.519199 2.750001 17.326895
v -56.519199 2.250001 16.826895
v -56.269199 2.500001 17.076895
v -56.519199 44.000000 18.326889
v -56.269199 44.250000 18.076889
v -56.519199 43.500000 17.076891
v -56.269199 43.750000 16.826891
v -56.519199 43.000000 16.576891
v -56.269199 43.000000 16.326889
v -56.519199 3.500001 16.576895
v -56.269199 3.500001 16.326893
v -56.519199 3.000001 16.826895
v -56.269199 2.750001 16.576895
v -56.519199 2.750001 17.326895
v -56.269199 2.500001 17.076895
v -56.269199 44.250000 18.076889
v -56.519199 44.500000 17.826889
v -56.269199 43.750000 16.826891
v -56.519199 44.000000 16.576891
v -56.269199 43.000000 16.326889
v -56.519199 43.250000 16.076889
v -56.269199 3.500001 16.326893
v -56.519199 3.250001 16.076893
v -56.269199 2.750001 16.576895
v -56.519199 2.500001 16.326893
v -56.269199 2.500001 17.076895
v -56.519199 2.250001 16.826895
v 56.480801 44.500000 17.826881
v 56.230801 44.250000 18.076881
v 56.480801 44.000000 16.576880
v 56.230801 43.750000 16.826880
v 56.480801 43.250000 16.076880
v 56.230801 43.000000 16.326880
v 56.480801 3.250001 16.076883
v 56.230801 3.500001 16.326883
v 56.480801 2.500001 16.326883
v 56.230801 2.750001 16.576883
v 56.480801 2.250001 16.826883
v 56.230801 2.500001 17.076883
v 56.480801 44.500000 17.826881
v 56.730801 44.250000 18.076881
v 56.230801 44.250000 18.076881
v 56.480801 44.000000 18.326881
v 56.230801 43.750000 16.826880
v 56.480801 43.500000 17.076880
v 56.230801 43.000000 16.326880
v 56.480801 43.000000 16.576880
v 56.230801 3.500001 16.326883
v 56.480801 3.500001 16.576883
v 56.230801 2.750001 16.576883
v 56.480801 3.000001 16.826883
v 56.230801 2.500001 17.076883
v 56.480801 2.750001 17.326883
v 56.480801 2.250001 16.826883
v 56.730801 2.500001 17.076883
v 56.480801 44.000000 18.326881
v 56.730801 44.250000 18.076881
v 56.480801 43.500000 17.076880
v 56.730801 43.750000 16.826880
v 56.480801 43.000000 16.576880
v 56.730801 43.000000 16.326880
v 56.480801 3.500001 16.576883
v 56.730801 3.500001 16.326883
v 56.480801 3.000001 16.826883
v 56.730801 2.750001 16.576883
v 56.480801 2.750001 17.326883
v 56.730801 2.500001 17.076883
v 56.730801 44.250000 18.076881
v 56.480801 44.500000 17.826881
v 56.730801 43.750000 16.826880
v 56.480801 44.000000 16.576880
v 56.730801 43.000000 16.326880
v 56.480801 43.250000 16.076880
v 56.730801 3.500001 16.326883
v 56.480801 3.250001 16.076883
v 56.730801 2.750001 16.576883
v 56.480801 2.500001 16.326883
v 56.730801 2.500001 17.076883
v 56.480801 2.250001 16.826883
v -56.000000 44.000000 15.999997
v -48.000000 44.000000 15.999997
v -56.000000 4.000001 16.000000
v -48.000000 4.000001 16.000000
v -40.000000 44.000000 15.999997
v -32.000000 44.000000 15.999997
v -40.000000 4.000001 16.000000
v -32.000000 4.000001 16.000000
v -48.000000 44.000000 15.999997
v -40.000000 44.000000 15.999997
v -48.000000 4.000001 16.000000
v -40.000000 4.000001 16.000000
v -16.000000 44.000000 15.999997
v -8.000000 44.000000 15.999997
v -16.000000 4.000001 16.000000
v -8.000000 4.000001 16.000000
v 8.000000 44.000000 15.999997
v 16.000000 44.000000 15.999997
v 8.000000 4.000001 16.000000
v 16.000000 4.000001 16.000000
v 32.000000 44.000000 15.999997
v 40.000000 44.000000 15.999997
v 40.000000 4.000001 16.000000
v 48.000000 44.000000 15.999997
v 56.000000 44.000000 15.999997
v 48.000000 4.000001 16.000000
v 56.000000 4.000001 16.000000
v 40.000000 44.000000 15.999997
v 48.000000 44.000000 15.999997
v 40.000000 4.000001 16.000000
v 48.000000 4.000001 16.000000
v 48.000000 44.000000 15.999997
v 48.000000 44.000000 18.999996
v 40.000000 44.000000 15.999997
v 40.000000 44.000000 18.999996
v 40.000000 12.000001 15.999999
v 40.000000 12.000002 19.000000
v 48.000000 12.000001 15.999999
v 48.000000 12.000002 19.000000
v 16.000000 44.000000 15.999997
v 16.000000 44.000000 18.999996
v 8.000000 44.000000 15.999997
v 8.000000 44.000000 18.999996
v 8.000000 12.000001 15.999999
v 8.000000 12.000002 19.000000
v 16.000000 12.000001 15.999999
v 16.000000 12.000002 19.000000
v 8.000000 44.000000 -16.000004
v -8.000000 44.000000 -16.000004
v 8.000000 3.999999 -16.000000
v -8.000000 3.999999 -16.000000
v 57.000000 44.000000 -16.000004
v 57.000000 45.000000 -16.000004
v 16.000000 44.000000 -16.000004
v 16.000000 45.000000 -16.000004
v 16.000000 44.000000 -16.000004
v 16.000000 45.000000 -16.000004
v -24.000000 44.000000 -16.000004
v -24.000000 45.000000 -16.000004
v -24.000000 44.000000 -16.000004
v -24.000000 45.000000 -16.000004
v -57.000000 44.000000 -16.000004
v -57.000000 45.000000 -16.000004
v -8.000000 3.999999 -16.000000
v 24.000000 -0.000001 -16.000000
v -8.000000 -0.000001 -16.000000
v -32.000000 3.999999 -16.000000
v -56.000000 3.999999 -16.000000
v -32.000000 -0.000001 -16.000000
v -56.000000 -0.000001 -16.000000
v 24.000000 44.000000 -16.000004
v 16.000000 44.000000 -16.000004
v 16.000000 3.999999 -16.000000
v -56.000000 3.999999 -16.000000
v -57.000000 3.999999 -16.000000
v -56.000000 -0.000001 -16.000000
v -57.000000 -0.000001 -16.000000
v -56.000000 44.000000 -16.000004
v -57.000000 44.000000 -16.000004
v -56.000000 3.999999 -16.000000
v -57.000000 3.999999 -16.000000
v 57.000000 44.000000 -16.000004
v 56.000000 44.000000 -16.000004
v 57.000000 3.999999 -16.000000
v 56.000000 3.999999 -16.000000
v 57.000000 3.999999 -16.000000
v 56.000000 3.999999 -16.000000
v 57.000000 -0.000001 -16.000000
v 56.000000 -0.000001 -16.000000
v -16.000000 44.000000 -16.000004
v -32.000000 44.000000 -16.000004
v -16.000000 3.999999 -16.000000
v -32.000000 3.999999 -16.000000
v 56.000000 44.000000 -16.000004
v 48.000000 44.000000 -16.000004
v 56.000000 3.999999 -16.000000
v 48.000000 3.999999 -16.000000
v 40.000000 44.000000 -16.000004
v 24.000000 44.000000 -16.000004
v 40.000000 3.999999 -16.000000
v 48.000000 44.000000 -16.000004
v 40.000000 44.000000 -16.000004
v 48.000000 3.999999 -16.000000
v 40.000000 3.999999 -16.000000
v 16.000000 44.000000 -16.000004
v 8.000000 44.000000 -16.000004
v 16.000000 3.999999 -16.000000
v 8.000000 3.999999 -16.000000
v -8.000000 44.000000 -16.000004
v -16.000000 44.000000 -16.000004
v -8.000000 3.999999 -16.000000
v -16.000000 3.999999 -16.000000
v -32.000000 44.000000 -16.000004
v -40.000000 44.000000 -16.000004
v -32.000000 3.999999 -16.000000
v -40.000000 3.999999 -16.000000
v -48.000000 44.000000 -16.000004
v -56.000000 44.000000 -16.000004
v -48.000000 3.999999 -16.000000
v -56.000000 3.999999 -16.000000
v -40.000000 44.000000 -16.000004
v -48.000000 44.000000 -16.000004
v -40.000000 3.999999 -16.000000
v -48.000000 3.999999 -16.000000
v 56.000000 3.999999 -16.000000
v 56.000000 -0.000001 -16.000000
v 24.000000 -0.000001 -16.000000
v -8.000000 3.999999 -16.000000
v -32.000000 3.999999 -16.000000
v -8.000000 -0.000001 -16.000000
v -32.000000 -0.000001 -16.000000
v 57.000000 4.000001 16.000000
v 57.000000 3.999999 -16.000000
v 57.000000 0.000001 16.000000
v 57.000000 -0.000001 -16.000000
v 57.000000 44.000000 15.999997
v 57.000000 45.000000 15.999996
v 57.000000 44.000000 -16.000004
v 57.000000 45.000000 -16.000004
v 57.000000 44.000000 15.999997
v 57.000000 44.000000 7.999997
v 57.000000 4.000001 16.000000
v 57.000000 4.000000 8.000000
v 57.000000 44.000000 -8.000003
v 57.000000 44.000000 -16.000004
v 57.000000 3.999999 -8.000000
v 57.000000 3.999999 -16.000000
v 57.000000 44.000000 7.999997
v 57.000000 44.000000 -8.000003
v 57.000000 4.000000 8.000000
v 57.000000 3.999999 -8.000000
v 56.499977 44.500000 -17.749996
v 56.749977 44.250000 -17.999996
v 56.499977 44.000000 -16.500000
v 56.749977 43.750000 -16.750000
v 56.499977 43.250000 -15.999995
v 56.749977 43.000000 -16.250000
v 56.499977 3.249999 -15.999992
v 56.749977 3.499999 -16.249996
v 56.499977 2.499999 -16.249992
v 56.749977 2.749999 -16.499996
v 56.499977 2.249999 -16.749996
v 56.749977 2.499999 -16.999996
v 56.499977 44.500000 -17.749996
v 56.249977 44.250000 -17.999996
v 56.749977 44.250000 -17.999996
v 56.499977 44.000000 -18.249996
v 56.749977 43.750000 -16.750000
v 56.499977 43.500000 -17.000000
v 56.749977 43.000000 -16.250000
v 56.499977 43.000000 -16.500000
v 56.749977 3.499999 -16.249996
v 56.499977 3.499999 -16.499996
v 56.749977 2.749999 -16.499996
v 56.499977 2.999999 -16.749996
v 56.749977 2.499999 -16.999996
v 56.499977 2.749999 -17.249996
v 56.499977 2.249999 -16.749996
v 56.249977 2.499999 -16.999996
v 56.499977 44.000000 -18.249996
v 56.249977 44.250000 -17.999996
v 56.499977 43.500000 -17.000000
v 56.249977 43.750000 -16.750000
v 56.499977 43.000000 -16.500000
v 56.249977 43.000000 -16.249996
v 56.499977 3.499999 -16.499996
v 56.249977 3.499999 -16.249992
v 56.499977 2.999999 -16.749996
v 56.249977 2.749999 -16.499996
v 56.499977 2.749999 -17.249996
v 56.249977 2.499999 -16.999996
v 56.249977 44.250000 -17.999996
v 56.499977 44.500000 -17.749996
v 56.249977 43.750000 -16.750000
v 56.499977 44.000000 -16.500000
v 56.249977 43.000000 -16.249996
v 56.499977 43.250000 -15.999995
v 56.249977 3.499999 -16.249992
v 56.499977 3.249999 -15.999992
v 56.249977 2.749999 -16.499996
v 56.499977 2.499999 -16.249992
v 56.249977 2.499999 -16.999996
v 56.499977 2.249999 -16.749996
v -56.500023 44.500000 -17.749981
v -56.250023 44.250000 -17.999981
v -56.500023 44.000000 -16.499977
v -56.250023 43.750000 -16.749977
v -56.500023 43.250000 -15.999976
v -56.250023 43.000000 -16.249977
v -56.500023 3.249999 -15.999973
v -56.250023 3.499999 -16.249973
v -56.500023 2.499999 -16.249973
v -56.250023 2.749999 -16.499973
v -56.500023 2.249999 -16.749973
v -56.250023 2.499999 -16.999973
v -56.500023 44.500000 -17.749981
v -56.750023 44.250000 -17.999981
v -56.250023 44.250000 -17.999981
v -56.500023 44.000000 -18.249981
v -56.250023 43.750000 -16.749977
v -56.500023 43.500000 -16.999977
v -56.250023 43.000000 -16.249977
v -56.500023 43.000000 -16.499977
v -56.250023 3.499999 -16.249973
v -56.500023 3.499999 -16.499973
v -56.250023 2.749999 -16.499973
v -56.500023 2.999999 -16.749973
v -56.250023 2.499999 -16.999973
v -56.500023 2.749999 -17.249973
v -56.500023 2.249999 -16.749973
v -56.750023 2.499999 -16.999973
v -56.500023 44.000000 -18.249981
v -56.750023 44.250000 -17.999981
v -56.500023 43.500000 -16.999977
v -56.750023 43.750000 -16.749977
v -56.500023 43.000000 -16.499977
v -56.750023 43.000000 -16.249977
v -56.500023 3.499999 -16.499973
v -56.750023 3.499999 -16.249973
v -56.500023 2.999999 -16.749973
v -56.750023 2.749999 -16.499973
v -56.500023 2.749999 -17.249973
v -56.750023 2.499999 -16.999973
v -56.750023 44.250000 -17.999981
v -56.500023 44.500000 -17.749981
v -56.750023 43.750000 -16.749977
v -56.500023 44.000000 -16.499977
v -56.750023 43.000000 -16.249977
v -56.500023 43.250000 -15.999976
v -56.750023 3.499999 -16.249973
v -56.500023 3.249999 -15.999973
v -56.750023 2.749999 -16.499973
v -56.500023 2.499999 -16.249973
v -56.750023 2.499999 -16.999973
v -56.500023 2.249999 -16.749973
v 0.000000 44.500000 17.999996
v -41.000000 44.500000 17.999996
v -59.000000 44.500000 17.999996
v 0.000000 49.000000 -0.000004
v -41.000000 49.000000 -0.000004
v 0.000000 44.500000 -18.000004
v -41.000000 44.500000 -18.000004
v -59.000000 44.500000 -18.000004
v 0.000000 49.000000 -0.000004
v -41.000000 49.000000 -0.000004
v -59.000000 44.500000 17.999996
v -59.000000 44.500000 -18.000004
v -41.000000 49.000000 -0.000004
v 0.000000 44.500000 17.999996
v -41.000000 44.500000 17.999996
v -59.000000 44.500000 17.999996
v 0.000000 49.000000 -0.000004
v -41.000000 49.000000 -0.000004
v 0.000000 44.500000 -18.000004
v -41.000000 44.500000 -18.000004
v -59.000000 44.500000 -18.000004
v 0.000000 49.000000 -0.000004
v -41.000000 49.000000 -0.000004
v -59.000000 44.500000 17.999996
v -59.000000 44.500000 -18.000004
v -41.000000 49.000000 -0.000004
v -18.000000 48.000000 3.999996
v -18.000000 49.000000 11.999996
v -18.000000 45.000000 11.999996
v -18.000000 49.000000 11.999996
v -14.000000 49.000000 11.999996
v -18.000000 45.000000 11.999996
v -14.000000 45.000000 11.999996
v -14.000000 48.000000 3.999996
v -14.000000 49.000000 11.999996
v -14.000000 45.000000 11.999996
v -14.000000 49.000000 11.999996
v -18.000000 49.000000 11.999996
v -14.000000 48.000000 3.999996
v -18.000000 48.000000 3.999996
v -43.000000 48.000000 3.999996
v -43.000000 49.000000 11.999996
v -43.000000 45.000000 11.999996
v -43.000000 49.000000 11.999996
v -39.000000 49.000000 11.999996
v -43.000000 45.000000 11.999996
v -39.000000 45.000000 11.999996
v -39.000000 48.000000 3.999996
v -39.000000 49.000000 11.999996
v -39.000000 45.000000 11.999996
v -39.000000 49.000000 11.999996
v -43.000000 49.000000 11.999996
v -39.000000 48.000000 3.999996
v -43.000000 48.000000 3.999996
v -45.000000 48.000000 -2.000004
v -53.000000 49.000000 -2.000004
v -53.000000 45.000000 -2.000003
v -53.000000 49.000000 -2.000004
v -53.000000 49.000000 1.999996
v -53.000000 45.000000 -2.000003
v -53.000000 45.000000 1.999997
v -45.000000 48.000000 1.999996
v -53.000000 49.000000 1.999996
v -53.000000 45.000000 1.999997
v -53.000000 49.000000 1.999996
v -53.000000 49.000000 -2.000004
v -45.000000 48.000000 1.999996
v -45.000000 48.000000 -2.000004
v -39.000000 48.000000 -4.000004
v -39.000000 49.000000 -12.000004
v -39.000000 45.000000 -12.000004
v -39.000000 49.000000 -12.000004
v -43.000000 49.000000 -12.000004
v -39.000000 45.000000 -12.000004
v -43.000000 45.000000 -12.000004
v -43.000000 48.000000 -4.000004
v -43.000000 49.000000 -12.000004
v -43.000000 45.000000 -12.000004
v -43.000000 49.000000 -12.000004
v -39.000000 49.000000 -12.000004
v -43.000000 48.000000 -4.000004
v -39.000000 48.000000 -4.000004
v -14.000000 48.000000 -4.000004
v -14.000000 49.000000 -12.000004
v -14.000000 45.000000 -12.000004
v -14.000000 49.000000 -12.000004
v -18.000000 49.000000 -12.000004
v -14.000000 45.000000 -12.000004
v -18.000000 45.000000 -12.000004
v -18.000000 48.000000 -4.000004
v -18.000000 49.000000 -12.000004
v -18.000000 45.000000 -12.000004
v -18.000000 49.000000 -12.000004
v -14.000000 49.000000 -12.000004
v -18.000000 48.000000 -4.000004
v -14.000000 48.000000 -4.000004
v 18.000000 48.000000 -4.000004
v 18.000000 49.000000 -12.000004
v 18.000000 45.000000 -12.000004
v 18.000000 49.000000 -12.000004
v 14.000000 49.000000 -12.000004
v 18.000000 45.000000 -12.000004
v 14.000000 45.000000 -12.000004
v 14.000000 48.000000 -4.000004
v 14.000000 49.000000 -12.000004
v 14.000000 45.000000 -12.000004
v 14.000000 49.000000 -12.000004
v 18.000000 49.000000 -12.000004
v 14.000000 48.000000 -4.000004
v 18.000000 48.000000 -4.000004
v 43.000000 48.000000 -4.000004
v 43.000000 49.000000 -12.000004
v 43.000000 45.000000 -12.000004
v 43.000000 49.000000 -12.000004
v 39.000000 49.000000 -12.000004
v 43.000000 45.000000 -12.000004
v 39.000000 45.000000 -12.000004
v 39.000000 48.000000 -4.000004
v 39.000000 49.000000 -12.000004
v 39.000000 45.000000 -12.000004
v 39.000000 49.000000 -12.000004
v 43.000000 49.000000 -12.000004
v 39.000000 48.000000 -4.000004
v 43.000000 48.000000 -4.000004
v 45.000000 48.000000 1.999996
v 53.000000 49.000000 1.999996
v 53.000000 45.000000 1.999997
v 53.000000 49.000000 1.999996
v 53.000000 49.000000 -2.000004
v 53.000000 45.000000 1.999997
v 53.000000 45.000000 -2.000003
v 45.000000 48.000000 -2.000004
v 53.000000 49.000000 -2.000004
v 53.000000 45.000000 -2.000003
v 53.000000 49.000000 -2.000004
v 53.000000 49.000000 1.999996
v 45.000000 48.000000 -2.000004
v 45.000000 48.000000 1.999996
v 39.000000 48.000000 3.999996
v 39.000000 49.000000 11.999996
v 39.000000 45.000000 11.999996
v 39.000000 49.000000 11.999996
v 43.000000 49.000000 11.999996
v 39.000000 45.000000 11.999996
v 43.000000 45.000000 11.999996
v 43.000000 48.000000 3.999996
v 43.000000 49.000000 11.999996
v 43.000000 45.000000 11.999996
v 43.000000 49.000000 11.999996
v 39.000000 49.000000 11.999996
v 43.000000 48.000000 3.999996
v 39.000000 48.000000 3.999996
v 14.000000 48.000000 3.999996
v 14.000000 49.000000 11.999996
v 14.000000 45.000000 11.999996
v 14.000000 49.000000 11.999996
v 18.000000 49.000000 11.999996
v 14.000000 45.000000 11.999996
v 18.000000 45.000000 11.999996
v 18.000000 48.000000 3.999996
v 18.000000 49.000000 11.999996
v 18.000000 45.000000 11.999996
v 18.000000 49.000000 11.999996
v 14.000000 49.000000 11.999996
v 18.000000 48.000000 3.999996
v 14.000000 48.000000 3.999996
v 0.000000 44.500000 -18.000004
v 41.000000 44.500000 -18.000004
v 59.000000 44.500000 -18.000004
v 0.000000 49.000000 -0.000004
v 41.000000 49.000000 -0.000004
v 0.000000 44.500000 17.999996
v 41.000000 44.500000 17.999996
v 59.000000 44.500000 17.999996
v 0.000000 49.000000 -0.000004
v 41.000000 49.000000 -0.000004
v 59.000000 44.500000 -18.000004
v 59.000000 44.500000 17.999996
v 41.000000 49.000000 -0.000004
v 0.000000 44.500000 -18.000004
v 41.000000 44.500000 -18.000004
v 59.000000 44.500000 -18.000004
v 0.000000 49.000000 -0.000004
v 41.000000 49.000000 -0.000004
v 0.000000 44.500000 17.999996
v 41.000000 44.500000 17.999996
v 59.000000 44.500000 17.999996
v 0.000000 49.000000 -0.000004
v 41.000000 49.000000 -0.000004
v 59.000000 44.500000 -18.000004
v 59.000000 44.500000 17.999996
v 41.000000 49.000000 -0.000004
v 8.000000 44.000000 18.999996
v 16.000000 44.000000 18.999996
v 8.000000 12.000002 19.000000
v 16.000000 12.000002 19.000000
v 40.000000 44.000000 18.999996
v 48.000000 44.000000 18.999996
v 40.000000 12.000002 19.000000
v 48.000000 12.000002 19.000000
v -48.000000 44.000000 15.999997
v -48.000000 44.000000 18.999996
v -48.000000 12.000001 15.999999
v -48.000000 12.000002 19.000000
v -16.000000 44.000000 15.999997
v -16.000000 44.000000 18.999996
v -16.000000 12.000001 15.999999
v -16.000000 12.000002 19.000000
v 8.000000 44.000000 15.999997
v 8.000000 44.000000 18.999996
v 8.000000 12.000001 15.999999
v 8.000000 12.000002 19.000000
v 40.000000 44.000000 15.999997
v 40.000000 44.000000 18.999996
v 40.000000 12.000001 15.999999
v 40.000000 12.000002 19.000000
v -40.000000 44.000000 18.999996
v -40.000000 44.000000 15.999997
v -40.000000 12.000002 19.000000
v -40.000000 12.000001 15.999999
v -8.000000 44.000000 18.999996
v -8.000000 44.000000 15.999997
v -8.000000 12.000002 19.000000
v -8.000000 12.000001 15.999999
v 16.000000 44.000000 18.999996
v 16.000000 44.000000 15.999997
v 16.000000 12.000002 19.000000
v 16.000000 12.000001 15.999999
v 48.000000 44.000000 18.999996
v 48.000000 44.000000 15.999997
v 48.000000 12.000002 19.000000
v 48.000000 12.000001 15.999999
v 48.000000 44.000000 -19.000004
v 40.000000 44.000000 -19.000004
v 48.000000 11.999998 -19.000000
v 40.000000 11.999998 -19.000000
v 8.000000 44.000000 -16.000004
v 8.000000 44.000000 -19.000004
v 16.000000 44.000000 -16.000004
v 16.000000 44.000000 -19.000004
v 16.000000 11.999999 -16.000000
v 16.000000 11.999998 -19.000000
v 8.000000 11.999999 -16.000000
v 8.000000 11.999998 -19.000000
v 40.000000 44.000000 -16.000004
v 40.000000 44.000000 -19.000004
v 48.000000 44.000000 -16.000004
v 48.000000 44.000000 -19.000004
v 48.000000 11.999999 -16.000000
v 48.000000 11.999998 -19.000000
v 40.000000 11.999999 -16.000000
v 40.000000 11.999998 -19.000000
v 16.000000 44.000000 -19.000004
v 8.000000 44.000000 -19.000004
v 16.000000 11.999998 -19.000000
v 8.000000 11.999998 -19.000000
v -48.000000 44.000000 -16.000004
v -48.000000 44.000000 -19.000004
v -40.000000 44.000000 -16.000004
v -40.000000 44.000000 -19.000004
v -40.000000 11.999999 -16.000000
v -40.000000 11.999998 -19.000000
v -48.000000 11.999999 -16.000000
v -48.000000 11.999998 -19.000000
v -16.000000 44.000000 -16.000004
v -16.000000 44.000000 -19.000004
v -8.000000 44.000000 -16.000004
v -8.000000 44.000000 -19.000004
v -8.000000 11.999999 -16.000000
v -8.000000 11.999998 -19.000000
v -16.000000 11.999999 -16.000000
v -16.000000 11.999998 -19.000000
v -8.000000 44.000000 -19.000004
v -16.000000 44.000000 -19.000004
v -8.000000 11.999998 -19.000000
v -16.000000 11.999998 -19.000000
v -40.000000 44.000000 -19.000004
v -48.000000 44.000000 -19.000004
v -40.000000 11.999998 -19.000000
v -48.000000 11.999998 -19.000000
v 48.000000 44.000000 -16.000004
v 48.000000 44.000000 -19.000004
v 48.000000 11.999999 -16.000000
v 48.000000 11.999998 -19.000000
v 16.000000 44.000000 -16.000004
v 16.000000 44.000000 -19.000004
v 16.000000 11.999999 -16.000000
v 16.000000 11.999998 -19.000000
v -8.000000 44.000000 -16.000004
v -8.000000 44.000000 -19.000004
v -8.000000 11.999999 -16.000000
v -8.000000 11.999998 -19.000000
v -40.000000 44.000000 -16.000004
v -40.000000 44.000000 -19.000004
v -40.000000 11.999999 -16.000000
v -40.000000 11.999998 -19.000000
v 40.000000 44.000000 -19.000004
v 40.000000 44.000000 -16.000004
v 40.000000 11.999998 -19.000000
v 40.000000 11.999999 -16.000000
v 8.000000 44.000000 -19.000004
v 8.000000 44.000000 -16.000004
v 8.000000 11.999998 -19.000000
v 8.000000 11.999999 -16.000000
v -16.000000 44.000000 -19.000004
v -16.000000 44.000000 -16.000004
v -16.000000 11.999998 -19.000000
v -16.000000 11.999999 -16.000000
v -48.000000 44.000000 -19.000004
v -48.000000 44.000000 -16.000004
v -48.000000 11.999998 -19.000000
v -48.000000 11.999999 -16.000000
v 39.435795 0.000000 16.000000
v 39.435799 1.929473 -16.000000
v 39.435799 3.999999 -16.000000
v 39.435795 0.000000 -15.999998
v 39.435791 3.999999 -16.000000
v 39.435795 2.760702 16.000000
v 39.435795 4.000001 16.000000
v 39.435795 4.000001 16.000000
v 39.435795 6.821032 15.999999
v 39.435795 12.518916 15.999999
v 39.435795 12.518918 -16.000000
v 32.000000 12.518919 15.999999
v 31.870270 12.518918 15.999999
v 32.000000 12.518914 15.999999
v 24.000000 12.518914 15.999999
v 22.296215 12.518919 15.999999
v 24.000000 12.518919 15.999999
v 17.733749 12.518916 15.999999
v 17.733749 12.518918 -16.000000
v 17.733749 3.216717 -16.000000
v 17.733749 3.999999 -16.000000
v 17.733749 3.999999 -16.000000
v 38.296219 12.518919 15.999999
v 27.407570 12.518918 -16.000000
v 24.000000 12.518918 -16.000000
v 24.000000 12.518918 -16.000000
v 17.733749 0.000000 -15.999998
v 17.733749 4.000001 16.000000
v 17.733749 0.000000 16.000000
v 17.733749 1.566564 16.000000
v 17.733749 4.000001 16.000000
v 17.733749 0.000000 -15.999998
v 38.447628 0.000000 -15.999998
v 39.435795 0.000000 16.000000
vn -1.0000 -0.0000 -0.0000
vn -0.0000 0.9864 0.1644
vn -0.0000 -0.9864 -0.1644
vn -0.0000 -0.0000 1.0000
vn -0.0000 1.0000 -0.0000
vn -0.0000 -1.0000 -0.0000
vn -0.8148 0.4525 -0.3623
vn -0.7926 0.5661 -0.2265
vn -0.7926 0.5662 -0.2265
vn -0.7752 0.1657 -0.6096
vn -0.7752 0.1656 -0.6096
vn -0.7513 -0.0988 -0.6525
vn -0.8157 -0.3757 -0.4400
vn -0.8018 -0.5345 -0.2673
vn -0.0000 0.7071 0.7071
vn -0.6430 0.1144 0.7573
vn -0.7757 -0.5017 0.3828
vn -0.8105 -0.4908 0.3197
vn -0.6900 -0.2185 0.6900
vn -0.7412 -0.2155 0.6358
vn -0.7251 0.1340 0.6755
vn -0.6969 0.1691 0.6969
vn -0.8157 0.3757 0.4400
vn -0.7864 0.4115 0.4607
vn -0.6295 -0.1355 0.7651
vn -0.0000 -0.7071 0.7071
vn 0.7607 -0.5203 0.3880
vn 0.8148 -0.4525 0.3623
vn 0.7926 -0.5661 0.2265
vn 0.6739 -0.3029 0.6739
vn 0.7283 -0.2343 0.6440
vn 0.7345 0.1256 0.6669
vn 0.7024 0.1155 0.7024
vn 0.8165 0.4082 0.4082
vn 0.7959 0.4028 0.4521
vn 0.8018 0.5345 0.2673
vn 0.8148 0.4525 -0.3623
vn 0.7926 0.5661 -0.2265
vn 0.7752 0.1656 -0.6096
vn 0.7752 0.1657 -0.6096
vn 0.7513 -0.0988 -0.6525
vn 0.8157 -0.3757 -0.4399
vn 0.8157 -0.3757 -0.4400
vn 0.8018 -0.5345 -0.2673
vn -0.8157 -0.3757 -0.4399
vn -0.6430 0.1143 0.7573
vn -0.7758 -0.5017 0.3828
vn -0.8157 0.3757 0.4399
vn 0.7926 0.5662 -0.2265
vn -0.0000 -0.0000 -1.0000
vn 1.0000 -0.0000 -0.0000
vn 0.8148 0.4525 0.3623
vn 0.7926 0.5661 0.2265
vn 0.7752 0.1657 0.6096
vn 0.7752 0.1656 0.6096
vn 0.7513 -0.0988 0.6525
vn 0.8157 -0.3757 0.4399
vn 0.8157 -0.3757 0.4400
vn 0.8018 -0.5345 0.2673
vn -0.0000 0.7071 -0.7071
vn 0.6430 0.1143 -0.7573
vn 0.7757 -0.5017 -0.3828
vn 0.8105 -0.4908 -0.3197
vn 0.6900 -0.2185 -0.6900
vn 0.7412 -0.2155 -0.6358
vn 0.7251 0.1340 -0.6755
vn 0.6969 0.1691 -0.6969
vn 0.8157 0.3757 -0.4399
vn 0.7864 0.4115 -0.4607
vn 0.6295 -0.1355 -0.7651
vn -0.0000 -0.7071 -0.7071
vn -0.7607 -0.5203 -0.3880
vn -0.8148 -0.4525 -0.3623
vn -0.7926 -0.5661 -0.2265
vn -0.6739 -0.3029 -0.6739
vn -0.7283 -0.2343 -0.6440
vn -0.7345 0.1256 -0.6669
vn -0.7024 0.1155 -0.7024
vn -0.8165 0.4082 -0.4082
vn -0.7959 0.4028 -0.4521
vn -0.8018 0.5345 -0.2673
vn -0.8148 0.4525 0.3623
vn -0.8148 0.4525 0.3624
vn -0.7926 0.5661 0.2265
vn -0.7752 0.1656 0.6096
vn -0.7752 0.1657 0.6096
vn -0.7513 -0.0988 0.6525
vn -0.8157 -0.3757 0.4400
vn -0.8018 -0.5345 0.2673
vn 0.6429 0.1144 -0.7573
vn -0.0000 0.9701 0.2425
vn -0.0000 0.9701 -0.2425
vn -0.2425 0.9701 -0.0000
vn -0.0000 -0.9701 -0.2425
vn -0.0000 -0.9701 0.2425
vn 0.2425 -0.9701 -0.0000
vn -0.0000 0.9923 -0.1240
vn 0.1240 0.9923 -0.0000
vn -0.0000 0.9923 0.1240
vn -0.1240 0.9923 -0.0000
vn 0.2425 0.9701 -0.0000
vn -0.2425 -0.9701 -0.0000
vn -0.0000 -0.8263 0.5633
vt 0.500000 0.312500
vt 0.500000 0.250000
vt 1.000000 0.250000
vt 1.000000 0.312500
vt 0.656250 0.875000
vt 0.656250 0.375000
vt 0.671875 0.375000
vt 0.671875 0.875000
vt 0.375000 0.375000
vt 0.500000 0.375000
vt 0.500000 1.000000
vt 0.375000 1.000000
vt 0.000000 1.000000
vt 0.000000 0.375000
vt 0.250000 0.375000
vt 0.250000 1.000000
vt 0.000000 0.187500
vt 0.000000 0.125000
vt 0.125000 0.125000
vt 0.125000 0.187500
vt 0.656250 1.000000
vt 0.671875 1.000000
vt 0.656250 0.500000
vt 0.671875 0.500000
vt 0.875000 0.250000
vt 0.875000 0.312500
vt 0.652090 0.250000
vt 0.652090 0.274478
vt 0.652090 0.312500
vt 0.125000 0.375000
vt 0.125000 1.000000
vt 0.687500 0.500000
vt 0.812500 0.500000
vt 0.812500 1.000000
vt 0.687500 1.000000
vt 0.937500 0.875000
vt 0.984375 0.875000
vt 0.984375 1.000000
vt 0.937500 1.000000
vt 0.609375 0.312500
vt 0.609375 0.250006
vt 0.625000 0.250006
vt 0.625000 0.312500
vt 0.625000 1.000000
vt 0.625000 0.375000
vt 0.640625 0.375000
vt 0.640625 1.000000
vt 0.515625 0.250006
vt 0.515625 0.312500
vt 0.937500 0.500000
vt 0.027090 0.375000
vt 0.027090 0.508108
vt 0.098378 0.508108
vt 0.125000 0.508108
vt 0.125000 0.250000
vt 0.250000 0.250000
vt 0.000000 0.312500
vt 0.000000 0.250000
vt 0.125000 0.312500
vt 0.500000 0.500000
vt 0.625000 0.500000
vt 0.500000 0.508108
vt 0.622973 0.508108
vt 0.625000 0.508108
vt 0.671875 0.962054
vt 0.687500 0.962054
vt 0.687500 0.988840
vt 0.671875 0.988840
vt 0.671875 0.935266
vt 0.687500 0.935266
vt 0.671875 0.439734
vt 0.687500 0.439734
vt 0.671875 0.412946
vt 0.687500 0.412946
vt 0.671875 0.386160
vt 0.687500 0.386160
vt 0.687500 0.375000
vt 0.000000 0.508108
vt 0.116184 0.508108
vt 0.116184 0.419079
vt 0.097910 0.508108
vt 0.097910 0.375000
vt 0.008816 0.375000
vt 0.008816 0.508108
vt 0.196757 0.508108
vt 0.250000 0.508108
vt 0.758816 0.250000
vt 0.758816 0.280148
vt 0.758816 0.312500
vt 1.000000 0.000000
vt 0.375000 0.250000
vt 0.375000 0.000000
vt 0.125000 0.000000
vt 0.625000 0.000000
vt 0.000000 0.062500
vt 0.125000 0.062500
vt 0.062500 0.062500
vt 0.062500 0.125000
vt 0.812500 0.187500
vt 0.812500 0.062500
vt 0.875000 0.062500
vt 0.875000 0.187500
vt 0.812500 0.375000
vt 0.812500 0.875000
vt 0.687500 0.875000
vt 0.937500 0.375000
vt 0.765513 0.500000
vt 0.765513 1.000000
vt 0.890320 0.500000
vt 0.890320 1.000000
vt 0.765625 0.375000
vt 0.765625 0.875000
vt 0.890320 0.375000
vt 0.890320 0.875000
vt 0.734263 0.500000
vt 0.734263 1.000000
vt 0.859070 0.500000
vt 0.859070 1.000000
vt 0.734375 0.375000
vt 0.734375 0.875000
vt 0.859070 0.375000
vt 0.859070 0.875000
vt 0.116184 0.375000
vt 0.616184 0.293136
vt 0.616184 0.250000
vt 0.597910 0.312500
vt 0.597910 0.300261
vt 0.616184 0.312500
vt 0.774256 0.250000
vt 0.597910 0.250000
s 1
usemtl rus_build_01
f 1/1/1 3/2/1 4/3/1
f 1/1/1 4/3/1 2/4/1
f 5/5/1 7/6/1 8/7/1
f 5/5/1 8/7/1 6/8/1
f 11/9/1 12/10/1 10/11/1
f 11/9/1 10/11/1 9/12/1
f 15/9/1 16/10/1 14/11/1
f 15/9/1 14/11/1 13/12/1
f 17/13/1 19/14/1 20/15/1
f 17/13/1 20/15/1 18/16/1
f 21/17/2 23/18/2 24/19/2
f 21/17/2 24/19/2 22/20/2
f 28/19/3 27/18/3 25/17/3
f 26/20/3 28/19/3 25/17/3
f 29/13/4 31/14/4 32/15/4
f 29/13/4 32/15/4 30/16/4
f 33/21/4 35/6/4 36/7/4
f 33/21/4 36/7/4 34/22/4
f 37/21/4 39/6/4 40/7/4
f 37/21/4 40/7/4 38/22/4
f 41/21/4 43/23/4 44/24/4
f 41/21/4 44/24/4 42/22/4
f 45/1/4 47/2/4 48/25/4
f 45/1/4 48/25/4 46/26/4
f 49/1/4 51/2/4 52/3/4
f 49/1/4 52/3/4 50/4/4
f 56/1/4 57/2/4 818/27/4 819/28/4
f 56/1/4 819/28/4 820/29/4
f 58/13/4 60/14/4 61/30/4
f 58/13/4 61/30/4 59/31/4
f 64/32/4 65/33/4 63/34/4
f 64/32/4 63/34/4 62/35/4
f 68/36/5 69/37/5 67/38/5
f 68/36/5 67/38/5 66/39/5
f 72/36/6 73/37/6 71/38/6
f 72/36/6 71/38/6 70/39/6
f 76/36/5 77/37/5 75/38/5
f 76/36/5 75/38/5 74/39/5
f 80/36/6 81/37/6 79/38/6
f 80/36/6 79/38/6 78/39/6
f 82/40/4 84/41/4 85/42/4
f 82/40/4 85/42/4 83/43/4
f 86/44/4 88/45/4 89/46/4
f 86/44/4 89/46/4 87/47/4
f 90/44/4 92/45/4 93/46/4
f 90/44/4 93/46/4 91/47/4
f 94/1/4 96/2/4 97/48/4
f 94/1/4 97/48/4 95/49/4
f 100/33/4 101/50/4 99/39/4
f 100/33/4 99/39/4 98/34/4
f 102/13/4 104/14/4 817/51/4 807/52/4 805/53/4
f 102/13/4 805/53/4 806/54/4 103/31/4
f 105/30/4 107/55/4 108/56/4
f 105/30/4 108/56/4 106/15/4
f 109/57/4 111/58/4 112/55/4
f 109/57/4 112/55/4 110/59/4
f 113/11/4 115/60/4 116/61/4
f 113/11/4 116/61/4 114/44/4
f 117/11/4 804/62/4 802/63/4
f 117/11/4 802/63/4 803/64/4 118/44/4
f 121/65/7 122/66/7 120/67/8
f 121/65/7 120/67/8 119/68/9
f 121/65/7 123/69/10 124/70/11
f 121/65/7 124/70/11 122/66/7
f 125/71/12 126/72/12 124/70/11
f 125/71/12 124/70/11 123/69/10
f 125/71/12 127/73/13 128/74/13
f 125/71/12 128/74/13 126/72/12
f 129/75/14 130/76/14 128/74/13
f 129/75/14 128/74/13 127/73/13
f 131/22/15 133/68/16 134/67/16
f 131/22/15 134/67/16 132/35/15
f 135/65/17 136/66/18 134/67/16
f 135/65/17 134/67/16 133/68/16
f 135/65/17 137/69/19 138/70/20
f 135/65/17 138/70/20 136/66/18
f 139/71/21 140/72/22 138/70/20
f 139/71/21 138/70/20 137/69/19
f 139/71/21 141/73/23 142/74/24
f 139/71/21 142/74/24 140/72/22
f 143/75/25 144/76/25 142/74/24
f 143/75/25 142/74/24 141/73/23
f 143/75/25 145/7/26 146/77/26
f 143/75/25 146/77/26 144/76/25
f 149/65/27 150/66/28 148/67/29
f 149/65/27 148/67/29 147/68/29
f 149/65/27 151/69/30 152/70/31
f 149/65/27 152/70/31 150/66/28
f 153/71/32 154/72/33 152/70/31
f 153/71/32 152/70/31 151/69/30
f 153/71/32 155/73/34 156/74/35
f 153/71/32 156/74/35 154/72/33
f 157/75/36 158/76/36 156/74/35
f 157/75/36 156/74/35 155/73/34
f 161/65/37 162/66/37 160/67/38
f 161/65/37 160/67/38 159/68/38
f 161/65/37 163/69/39 164/70/40
f 161/65/37 164/70/40 162/66/37
f 165/71/41 166/72/41 164/70/40
f 165/71/41 164/70/40 163/69/39
f 165/71/41 167/73/42 168/74/43
f 165/71/41 168/74/43 166/72/41
f 169/75/44 170/76/44 168/74/43
f 169/75/44 168/74/43 167/73/42
f 173/65/7 174/66/7 172/67/8
f 173/65/7 172/67/8 171/68/8
f 173/65/7 175/69/10 176/70/11
f 173/65/7 176/70/11 174/66/7
f 177/71/12 178/72/12 176/70/11
f 177/71/12 176/70/11 175/69/10
f 177/71/12 179/73/45 180/74/13
f 177/71/12 180/74/13 178/72/12
f 181/75/14 182/76/14 180/74/13
f 181/75/14 180/74/13 179/73/45
f 183/22/15 185/68/46 186/67/16
f 183/22/15 186/67/16 184/35/15
f 187/65/47 188/66/18 186/67/16
f 187/65/47 186/67/16 185/68/46
f 187/65/47 189/69/19 190/70/20
f 187/65/47 190/70/20 188/66/18
f 191/71/21 192/72/22 190/70/20
f 191/71/21 190/70/20 189/69/19
f 191/71/21 193/73/48 194/74/24
f 191/71/21 194/74/24 192/72/22
f 195/75/25 196/76/25 194/74/24
f 195/75/25 194/74/24 193/73/48
f 195/75/25 197/7/26 198/77/26
f 195/75/25 198/77/26 196/76/25
f 201/65/27 202/66/28 200/67/29
f 201/65/27 200/67/29 199/68/29
f 201/65/27 203/69/30 204/70/31
f 201/65/27 204/70/31 202/66/28
f 205/71/32 206/72/33 204/70/31
f 205/71/32 204/70/31 203/69/30
f 205/71/32 207/73/34 208/74/35
f 205/71/32 208/74/35 206/72/33
f 209/75/36 210/76/36 208/74/35
f 209/75/36 208/74/35 207/73/34
f 213/65/37 214/66/37 212/67/38
f 213/65/37 212/67/38 211/68/49
f 213/65/37 215/69/39 216/70/40
f 213/65/37 216/70/40 214/66/37
f 217/71/41 218/72/41 216/70/40
f 217/71/41 216/70/40 215/69/39
f 217/71/41 219/73/42 220/74/43
f 217/71/41 220/74/43 218/72/41
f 221/75/44 222/76/44 220/74/43
f 221/75/44 220/74/43 219/73/42
f 223/13/4 225/14/4 226/30/4
f 223/13/4 226/30/4 224/31/4
f 227/13/4 229/14/4 230/30/4
f 227/13/4 230/30/4 228/31/4
f 231/13/4 233/14/4 234/30/4
f 231/13/4 234/30/4 232/31/4
f 235/13/4 237/14/4 238/30/4
f 235/13/4 238/30/4 236/31/4
f 239/13/4 241/14/4 242/30/4
f 239/13/4 242/30/4 240/31/4
f 243/13/4 801/78/4 812/53/4
f 243/13/4 812/53/4 799/79/4 798/80/4 245/30/4 244/31/4
f 246/13/4 248/14/4 249/30/4
f 246/13/4 249/30/4 247/31/4
f 250/13/4 252/14/4 253/30/4
f 250/13/4 253/30/4 251/31/4
f 256/36/5 257/37/5 255/38/5
f 256/36/5 255/38/5 254/39/5
f 260/36/6 261/37/6 259/38/6
f 260/36/6 259/38/6 258/39/6
f 264/36/5 265/37/5 263/38/5
f 264/36/5 263/38/5 262/39/5
f 268/36/6 269/37/6 267/38/6
f 268/36/6 267/38/6 266/39/6
f 270/13/50 272/14/50 273/15/50
f 270/13/50 273/15/50 271/16/50
f 274/21/50 276/6/50 277/7/50
f 274/21/50 277/7/50 275/22/50
f 278/21/50 280/6/50 281/7/50
f 278/21/50 281/7/50 279/22/50
f 282/21/50 284/23/50 285/24/50
f 282/21/50 285/24/50 283/22/50
f 289/1/50 291/2/50 292/25/50
f 289/1/50 292/25/50 290/26/50
f 293/13/50 815/78/50 808/81/50 811/82/50 295/30/50
f 293/13/50 295/30/50 294/31/50
f 296/40/50 298/41/50 299/42/50
f 296/40/50 299/42/50 297/43/50
f 300/44/50 302/45/50 303/46/50
f 300/44/50 303/46/50 301/47/50
f 304/44/50 306/45/50 307/46/50
f 304/44/50 307/46/50 305/47/50
f 308/1/50 310/2/50 311/48/50
f 308/1/50 311/48/50 309/49/50
f 312/13/50 314/14/50 315/15/50
f 312/13/50 315/15/50 313/16/50
f 316/13/50 318/14/50 319/30/50
f 316/13/50 319/30/50 317/31/50
f 320/13/50 322/14/50 794/83/50 800/84/50 813/85/50
f 320/13/50 813/85/50 814/86/50 321/16/50
f 323/13/50 325/14/50 326/30/50
f 323/13/50 326/30/50 324/31/50
f 327/13/50 329/14/50 330/30/50
f 327/13/50 330/30/50 328/31/50
f 331/13/50 333/14/50 334/30/50
f 331/13/50 334/30/50 332/31/50
f 335/13/50 337/14/50 338/30/50
f 335/13/50 338/30/50 336/31/50
f 339/13/50 341/14/50 342/30/50
f 339/13/50 342/30/50 340/31/50
f 343/13/50 345/14/50 346/30/50
f 343/13/50 346/30/50 344/31/50
f 347/1/50 348/2/50 793/87/50 791/88/50
f 347/1/50 791/88/50 792/89/50
f 350/1/50 352/2/50 353/25/50
f 350/1/50 353/25/50 351/26/50
f 354/1/51 356/2/51 357/3/51
f 354/1/51 357/3/51 355/4/51
f 358/5/51 360/6/51 361/7/51
f 358/5/51 361/7/51 359/8/51
f 364/9/51 365/10/51 363/11/51
f 364/9/51 363/11/51 362/12/51
f 368/9/51 369/10/51 367/11/51
f 368/9/51 367/11/51 366/12/51
f 370/13/51 372/14/51 373/15/51
f 370/13/51 373/15/51 371/16/51
f 376/65/52 377/66/52 375/67/53
f 376/65/52 375/67/53 374/68/53
f 376/65/52 378/69/54 379/70/55
f 376/65/52 379/70/55 377/66/52
f 380/71/56 381/72/56 379/70/55
f 380/71/56 379/70/55 378/69/54
f 380/71/56 382/73/57 383/74/58
f 380/71/56 383/74/58 381/72/56
f 384/75/59 385/76/59 383/74/58
f 384/75/59 383/74/58 382/73/57
f 386/22/60 388/68/61 389/67/61
f 386/22/60 389/67/61 387/35/60
f 390/65/62 391/66/63 389/67/61
f 390/65/62 389/67/61 388/68/61
f 390/65/62 392/69/64 393/70/65
f 390/65/62 393/70/65 391/66/63
f 394/71/66 395/72/67 393/70/65
f 394/71/66 393/70/65 392/69/64
f 394/71/66 396/73/68 397/74/69
f 394/71/66 397/74/69 395/72/67
f 398/75/70 399/76/70 397/74/69
f 398/75/70 397/74/69 396/73/68
f 398/75/70 400/7/71 401/77/71
f 398/75/70 401/77/71 399/76/70
f 404/65/72 405/66/73 403/67/74
f 404/65/72 403/67/74 402/68/74
f 404/65/72 406/69/75 407/70/76
f 404/65/72 407/70/76 405/66/73
f 408/71/77 409/72/78 407/70/76
f 408/71/77 407/70/76 406/69/75
f 408/71/77 410/73/79 411/74/80
f 408/71/77 411/74/80 409/72/78
f 412/75/81 413/76/81 411/74/80
f 412/75/81 411/74/80 410/73/79
f 416/65/82 417/66/83 415/67/84
f 416/65/82 415/67/84 414/68/84
f 416/65/82 418/69/85 419/70/86
f 416/65/82 419/70/86 417/66/83
f 420/71/87 421/72/87 419/70/86
f 420/71/87 419/70/86 418/69/85
f 420/71/87 422/73/88 423/74/88
f 420/71/87 423/74/88 421/72/87
f 424/75/89 425/76/89 423/74/88
f 424/75/89 423/74/88 422/73/88
f 428/65/52 429/66/52 427/67/53
f 428/65/52 427/67/53 426/68/53
f 428/65/52 430/69/54 431/70/55
f 428/65/52 431/70/55 429/66/52
f 432/71/56 433/72/56 431/70/55
f 432/71/56 431/70/55 430/69/54
f 432/71/56 434/73/57 435/74/58
f 432/71/56 435/74/58 433/72/56
f 436/75/59 437/76/59 435/74/58
f 436/75/59 435/74/58 434/73/57
f 438/22/60 440/68/90 441/67/61
f 438/22/60 441/67/61 439/35/60
f 442/65/62 443/66/63 441/67/61
f 442/65/62 441/67/61 440/68/90
f 442/65/62 444/69/64 445/70/65
f 442/65/62 445/70/65 443/66/63
f 446/71/66 447/72/67 445/70/65
f 446/71/66 445/70/65 444/69/64
f 446/71/66 448/73/68 449/74/69
f 446/71/66 449/74/69 447/72/67
f 450/75/70 451/76/70 449/74/69
f 450/75/70 449/74/69 448/73/68
f 450/75/70 452/7/71 453/77/71
f 450/75/70 453/77/71 451/76/70
f 456/65/72 457/66/73 455/67/74
f 456/65/72 455/67/74 454/68/74
f 456/65/72 458/69/75 459/70/76
f 456/65/72 459/70/76 457/66/73
f 460/71/77 461/72/78 459/70/76
f 460/71/77 459/70/76 458/69/75
f 460/71/77 462/73/79 463/74/80
f 460/71/77 463/74/80 461/72/78
f 464/75/81 465/76/81 463/74/80
f 464/75/81 463/74/80 462/73/79
f 468/65/82 469/66/82 467/67/84
f 468/65/82 467/67/84 466/68/84
f 468/65/82 470/69/85 471/70/86
f 468/65/82 471/70/86 469/66/82
f 472/71/87 473/72/87 471/70/86
f 472/71/87 471/70/86 470/69/85
f 472/71/87 474/73/88 475/74/88
f 472/71/87 475/74/88 473/72/87
f 476/75/89 477/76/89 475/74/88
f 476/75/89 475/74/88 474/73/88
f 478/90/91 481/3/91 482/91/91
f 478/90/91 482/91/91 479/92/91
f 482/91/91 480/93/91 479/92/91
f 487/91/92 486/3/92 483/90/92
f 484/92/92 487/91/92 483/90/92
f 484/92/92 485/93/92 487/91/92
f 490/91/93 489/93/93 488/94/93
f 495/91/94 494/3/94 491/90/94
f 492/92/94 495/91/94 491/90/94
f 492/92/94 493/93/94 495/91/94
f 496/90/95 499/3/95 500/91/95
f 496/90/95 500/91/95 497/92/95
f 500/91/95 498/93/95 497/92/95
f 501/94/96 502/93/96 503/91/96
f 504/95/1 506/93/1 505/96/1
f 507/18/4 509/95/4 510/97/4
f 507/18/4 510/97/4 508/98/4
f 512/96/51 513/93/51 511/95/51
f 514/99/97 516/100/97 517/101/97
f 514/99/97 517/101/97 515/102/97
f 518/95/1 520/93/1 519/96/1
f 521/18/4 523/95/4 524/97/4
f 521/18/4 524/97/4 522/98/4
f 526/96/51 527/93/51 525/95/51
f 528/99/97 530/100/97 531/101/97
f 528/99/97 531/101/97 529/102/97
f 532/95/50 534/93/50 533/96/50
f 535/18/1 537/95/1 538/97/1
f 535/18/1 538/97/1 536/98/1
f 540/96/4 541/93/4 539/95/4
f 542/99/98 544/100/98 545/101/98
f 542/99/98 545/101/98 543/102/98
f 546/95/51 548/93/51 547/96/51
f 549/18/50 551/95/50 552/97/50
f 549/18/50 552/97/50 550/98/50
f 554/96/1 555/93/1 553/95/1
f 556/99/99 558/100/99 559/101/99
f 556/99/99 559/101/99 557/102/99
f 560/95/51 562/93/51 561/96/51
f 563/18/50 565/95/50 566/97/50
f 563/18/50 566/97/50 564/98/50
f 568/96/1 569/93/1 567/95/1
f 570/99/99 572/100/99 573/101/99
f 570/99/99 573/101/99 571/102/99
f 574/95/51 576/93/51 575/96/51
f 577/18/50 579/95/50 580/97/50
f 577/18/50 580/97/50 578/98/50
f 582/96/1 583/93/1 581/95/1
f 584/99/99 586/100/99 587/101/99
f 584/99/99 587/101/99 585/102/99
f 588/95/51 590/93/51 589/96/51
f 591/18/50 593/95/50 594/97/50
f 591/18/50 594/97/50 592/98/50
f 596/96/1 597/93/1 595/95/1
f 598/99/99 600/100/99 601/101/99
f 598/99/99 601/101/99 599/102/99
f 602/95/4 604/93/4 603/96/4
f 605/18/51 607/95/51 608/97/51
f 605/18/51 608/97/51 606/98/51
f 610/96/50 611/93/50 609/95/50
f 612/99/100 614/100/100 615/101/100
f 612/99/100 615/101/100 613/102/100
f 616/95/1 618/93/1 617/96/1
f 619/18/4 621/95/4 622/97/4
f 619/18/4 622/97/4 620/98/4
f 624/96/51 625/93/51 623/95/51
f 626/99/97 628/100/97 629/101/97
f 626/99/97 629/101/97 627/102/97
f 630/95/1 632/93/1 631/96/1
f 633/18/4 635/95/4 636/97/4
f 633/18/4 636/97/4 634/98/4
f 638/96/51 639/93/51 637/95/51
f 640/99/97 642/100/97 643/101/97
f 640/99/97 643/101/97 641/102/97
f 644/90/92 647/3/92 648/91/92
f 644/90/92 648/91/92 645/92/92
f 648/91/92 646/93/92 645/92/92
f 653/91/91 652/3/91 649/90/91
f 650/92/91 653/91/91 649/90/91
f 650/92/91 651/93/91 653/91/91
f 656/91/101 655/93/101 654/94/101
f 661/91/95 660/3/95 657/90/95
f 658/92/95 661/91/95 657/90/95
f 658/92/95 659/93/95 661/91/95
f 662/90/94 665/3/94 666/91/94
f 662/90/94 666/91/94 663/92/94
f 666/91/94 664/93/94 663/92/94
f 667/94/102 668/93/102 669/91/102
f 672/77/4 673/103/4 671/104/4
f 672/77/4 671/104/4 670/105/4
f 676/103/4 677/106/4 675/36/4
f 676/103/4 675/36/4 674/104/4
f 680/107/1 681/33/1 679/34/1
f 680/107/1 679/34/1 678/108/1
f 684/109/1 685/50/1 683/39/1
f 684/109/1 683/39/1 682/110/1
f 688/111/1 689/103/1 687/104/1
f 688/111/1 687/104/1 686/112/1
f 692/113/1 693/106/1 691/36/1
f 692/113/1 691/36/1 690/114/1
f 696/32/51 697/115/51 695/116/51
f 696/32/51 695/116/51 694/35/51
f 700/33/51 701/117/51 699/118/51
f 700/33/51 699/118/51 698/34/51
f 704/77/51 705/119/51 703/120/51
f 704/77/51 703/120/51 702/105/51
f 708/103/51 709/121/51 707/122/51
f 708/103/51 707/122/51 706/104/51
f 712/32/50 713/33/50 711/34/50
f 712/32/50 711/34/50 710/35/50
f 716/36/5 717/37/5 715/38/5
f 716/36/5 715/38/5 714/39/5
f 720/36/6 721/37/6 719/38/6
f 720/36/6 719/38/6 718/39/6
f 724/36/5 725/37/5 723/38/5
f 724/36/5 723/38/5 722/39/5
f 728/36/6 729/37/6 727/38/6
f 728/36/6 727/38/6 726/39/6
f 732/33/50 733/50/50 731/39/50
f 732/33/50 731/39/50 730/34/50
f 736/36/5 737/37/5 735/38/5
f 736/36/5 735/38/5 734/39/5
f 740/36/6 741/37/6 739/38/6
f 740/36/6 739/38/6 738/39/6
f 744/36/5 745/37/5 743/38/5
f 744/36/5 743/38/5 742/39/5
f 748/36/6 749/37/6 747/38/6
f 748/36/6 747/38/6 746/39/6
f 752/77/50 753/103/50 751/104/50
f 752/77/50 751/104/50 750/105/50
f 756/103/50 757/106/50 755/36/50
f 756/103/50 755/36/50 754/104/50
f 760/107/51 761/33/51 759/34/51
f 760/107/51 759/34/51 758/108/51
f 764/109/51 765/50/51 763/39/51
f 764/109/51 763/39/51 762/110/51
f 768/111/51 769/103/51 767/104/51
f 768/111/51 767/104/51 766/112/51
f 772/113/51 773/106/51 771/36/51
f 772/113/51 771/36/51 770/114/51
f 776/32/1 777/115/1 775/116/1
f 776/32/1 775/116/1 774/35/1
f 780/33/1 781/117/1 779/118/1
f 780/33/1 779/118/1 778/34/1
f 784/77/1 785/119/1 783/120/1
f 784/77/1 783/120/1 782/105/1
f 788/103/1 789/121/1 787/122/1
f 788/103/1 787/122/1 786/104/1
f 798/80/4 797/123/4 245/30/4
f 795/124/4 790/125/4 54/2/4 823/125/4 55/25/4
f 810/126/50 809/127/50 288/3/50 286/4/50
f 796/128/4 795/124/4 55/25/4 53/26/4
f 349/3/103 793/87/103 822/129/103
f 809/127/50 816/130/50 287/2/50 821/130/50 288/3/50
